<svg xmlns="http://www.w3.org/2000/svg" viewBox="0 0 479.95 414.05">
    <defs>
        <style>
            .cls-1{fill:#eff1fc;}.cls-2{fill:#cacaf8;}.cls-3{fill:#d8d8fa;}.cls-4{fill:#a6a6f4;}.cls-5{fill:#54618e;}.cls-6{fill:#b7c4ee;}.cls-7{fill:#6984dc;}.cls-8{fill:#f0f0fd;}.cls-9{fill:#6d87dd;}.cls-10{fill:#2c2982;}.cls-11{fill:#222065;}.cls-12{fill:#a10aff;}.cls-13{fill:#e2b779;}.cls-14{fill:#c077ff;}.cls-15{fill:#b661ff;}.cls-16{fill:#6a17ff;}.cls-17{fill:#f1f1f1;}.cls-18{fill:#d89bff;}.cls-19{fill:#6bb6ff;}.cls-20{fill:#0073e3;}.cls-21{fill:#9fd0ff;}.cls-22{fill:#d1e8ff;}
        </style>
    </defs>
    <title>Asset 6</title>
    <g id="Layer_2">
        <g id="Layer_1-2">
            <path class="cls-1"
                  d="M10.46,307c-12.64,7.3-14,18.35-3.07,24.67l135.32,78.13c10.94,6.32,30.1,5.53,42.74-1.77l284-164c12.64-7.3,14-18.36,3.07-24.68L337.24,141.22c-10.95-6.32-30.1-5.53-42.74,1.77Z"/>
            <path class="cls-2"
                  d="M460.58,203.22,334.94,130.68c-10.88-6.28-29.9-5.49-42.45,1.76L13.87,293.3,0,285.3v23.88H0c0,4,2.42,7.8,7.34,10.64l134.39,77.59c10.88,6.28,29.9,5.49,42.45-1.76l282.1-162.87c6.85-3.95,10.37-9,10.39-13.83h0v-25Z"/>
            <path class="cls-3"
                  d="M154.24,401.29V365.47L21.56,288.86l-7.69,4.44L0,285.3v23.88c0,4,2.41,7.8,7.34,10.64l134.39,77.59A33.31,33.31,0,0,0,154.24,401.29Z"/>
            <g id="charger-dock">
                <path class="cls-4"
                      d="M82.56,355.48c1.69,1,3.06-.06,3.06-2.31A7.79,7.79,0,0,0,84.27,349a5.56,5.56,0,0,0-1.71-1.68l-18.4-10.62c-1.69-1-3,.06-3,2.31a7.3,7.3,0,0,0,3,5.83Z"/>
                <path class="cls-5"
                      d="M62.67,336.36a6.75,6.75,0,0,0,2.91,5.07l17.59,10.15a1.81,1.81,0,0,0,2.24,0A8.37,8.37,0,0,0,84.27,349a5.46,5.46,0,0,0-1.71-1.68l-18.4-10.62a2.24,2.24,0,0,0-1.49-.35Z"/>
            </g>
            <path class="cls-6"
                  d="M294.45,105.61c11-6.33,27.58-7,37.08-1.54l135.23,78.08c9.49,5.48,8.3,15.07-2.66,21.4L182.22,366.29c-11,6.33-27.58,7-37.07,1.54L9.92,289.75c-9.5-5.48-8.3-15.07,2.66-21.4L294.45,105.61Z"/>
            <path class="cls-7"
                  d="M111.32,329.37c4-2.33,4.47-5.86,1-7.87L87.45,307.15c-3.49-2-9.6-1.76-13.63.57s-4.48,5.85-1,7.87l24.85,14.34C101.18,332,107.29,331.7,111.32,329.37Z"/>
            <path class="cls-8"
                  d="M334.94,106l134.39,77.59c10.88,6.28,9.51,17.26-3,24.51L184.19,371c-12.56,7.25-31.58,8-42.45,1.76L7.35,295.18c-9.55-5.51-9.66-14.65-1-21.7-4.62,5.65-3.55,12.13,3.62,16.27l135.23,78.08c9.5,5.48,26.11,4.79,37.08-1.54L464.1,203.55c11-6.33,12.16-15.92,2.66-21.4Z"/>
            <path class="cls-9"
                  d="M460.22,188.07,323.31,109c-5-2.86-13.61-2.53-19.3.76h0L42,261.15c-5.69,3.28-6.28,8.27-1.31,11.14l137.06,78.82c5,2.87,13.62,2.53,19.31-.75l261.9-151.15C464.6,195.93,465.19,190.93,460.22,188.07Z"/>
            <path class="cls-10"
                  d="M455.21,191.25,321.74,114.19c-4.84-2.79-13.31-2.44-18.9.79h0L45.69,263.51c-5.59,3.23-6.2,8.12-1.35,10.91L178,351.26c4.84,2.8,13.31,2.45,18.9-.78l257-148.31c5.59-3.23,6.2-8.12,1.36-10.92Z"/>
            <path class="cls-11"
                  d="M393.81,217.45l-88.62-51.17c-4.84-2.79-13.31-2.44-18.9.79h0L131.58,256.48c-5.59,3.23-6.2,8.12-1.36,10.91L219,318.34c4.84,2.8,13.31,2.45,18.9-.78l154.56-89.2C398,225.13,398.65,220.24,393.81,217.45Z"/>
            <path class="cls-12" d="M290.86,2.51V158.57L391,216.38l0-156Z"/>
            <path class="cls-13" d="M385.7,74.18l23.61-13.52h0l3.06-1.77Z"/>
            <path class="cls-14" d="M365.48,78.08l0,156L398,215.33l0-155.93Z"/>
            <path class="cls-15" d="M365.48,220.83l0,13.27L398,215.33l0-13.17Z"/>
            <path class="cls-16" d="M262.79,18.77V174.83l102.71,59.3,0-156L262.79,18.77Z"/>
            <path class="cls-17" d="M277.61,23.86l19.32-11.24,90.41,52.19L367.8,76Z"/>
            <path class="cls-18" d="M290.86,2.51,295.2,0,398.09,59.4l-4.56,2.43Z"/>
            <path class="cls-18" d="M262.79,18.77,267.54,16,366.77,73.3l-5,2.67-99-57.2Z"/>
            <path class="cls-18" d="M360.68,75.27l32.37-18.74,5,2.89L365.47,78.09Z"/>
            <path class="cls-12" d="M251,25.49V181.55l100.14,57.81,0-156Z"/>
            <path class="cls-13" d="M345.84,97.16l23.61-13.53h0l3.06-1.77Z"/>
            <path class="cls-14" d="M325.63,101.05l0,156,32.58-18.76.05-155.93Z"/>
            <path class="cls-15" d="M325.63,243.59l0,13.48,32.58-18.76.05-13.4Z"/>
            <path class="cls-16" d="M222.94,41.75V197.81L325.65,257.1l0-156Z"/>
            <path class="cls-17" d="M237.76,46.84,257.08,35.6l90.41,52.19L328,99Z"/>
            <path class="cls-18" d="M251,25.48l4.33-2.5,102.9,59.39-4.56,2.43Z"/>
            <path class="cls-18" d="M222.94,41.75,227.69,39l99.23,57.28L322,99l-99-57.2Z"/>
            <path class="cls-18" d="M320.83,98.25,353.2,79.5l5,2.9-32.6,18.67Z"/>
            <path class="cls-12" d="M209.36,49.5V205.56L309.5,263.37l0-156Z"/>
            <path class="cls-14" d="M284,125.07l0,156,32.58-18.77.06-155.93Z"/>
            <path class="cls-15" d="M284,267.16l0,13.93,32.58-18.77.06-13.84Z"/>
            <path class="cls-16" d="M181.28,65.76V221.82L284,281.11l0-156Z"/>
            <path class="cls-17" d="M196.11,70.85l19.31-11.24,90.41,52.19L286.29,123,196.11,70.85Z"/>
            <path class="cls-18" d="M209.36,49.5,213.69,47l102.9,59.39L312,108.82Z"/>
            <path class="cls-18" d="M181.29,65.76,186,63l99.23,57.28-5,2.67-99-57.2Z"/>
            <path class="cls-18" d="M279.17,122.26l32.37-18.75,5,2.9L284,125.08Z"/>
            <path class="cls-19"
                  d="M161.15,99.31c2.39-1.37,5.91-1.08,9.84,1.18,7.18,4.15,12.27,12.89,12.83,20.54,0,.49.06.81.1,1.3v29.34c2.2-.43,5,.15,8,1.88,6.37,3.68,11.68,11.34,12.79,18,2.22-.48,5,.09,8.07,1.85a28.74,28.74,0,0,1,11.41,13.35c2.31-.77,5.38-.27,8.75,1.67,7.17,4.14,13,13.33,13,20.51v73.89c0,3.24-1.19,5.52-3.16,6.65h0L224.06,300.3l-14.53-8.39,14.8-8.54L175,255a34.76,34.76,0,0,1-12.63-13.53l-19.89-37.57-2.69,1.55-19.33-15.19L138,180.11h0c2.37-1.79,6.15-1.66,10.41.8a28.16,28.16,0,0,1,9.68,9.92h0L157,118.49l-14.52-8.39,18.68-10.79Z"/>
            <path class="cls-20" d="M245.9,210.35v72.51c0,3.24-1.19,5.52-3.16,6.65L224.06,300.3l-2.6-1.5V224.47Z"/>
            <path class="cls-20" d="M216.8,176.42a29.91,29.91,0,0,1,7.35,10.37h0L196.27,202.9V188.27Z"/>
            <path class="cls-20" d="M199.26,160.1a26.34,26.34,0,0,1,5.41,11.49h0l-25.08,14.48V171.44Z"/>
            <path class="cls-21"
                  d="M139.36,118.18a13.26,13.26,0,0,1-.07-1.4c0-7.18,5.83-9.64,13-5.5s13,13.34,13,20.52a11.2,11.2,0,0,1-.07,1.32h0v29.34c2.2-.43,5,.15,8,1.88,6.37,3.68,11.68,11.34,12.79,18,2.22-.48,5,.09,8.07,1.85a28.74,28.74,0,0,1,11.41,13.35c2.31-.77,5.38-.28,8.74,1.67,7.18,4.14,13,13.33,13,20.51v73.89c0,7.15-5.79,9.6-12.93,5.48l-58-33.39a34.76,34.76,0,0,1-12.63-13.53l-22.64-42.76h0c-2.69-3.93-4.38-8.39-4.38-12.26,0-7.17,5.83-9.64,13-5.49a28.16,28.16,0,0,1,9.68,9.92h0V118.18Z"/>
            <path class="cls-22"
                  d="M139.36,118.65v-.47h0c0-.47-.07-.94-.07-1.4,0-7.18,5.83-9.64,13-5.5s13,13.34,13,20.52a11.2,11.2,0,0,1-.07,1.32h0v29.34c2.2-.43,5,.15,8,1.88,6.37,3.68,11.68,11.34,12.79,18,2.22-.48,5,.09,8.07,1.85a28.74,28.74,0,0,1,11.41,13.35c2.31-.77,5.38-.28,8.74,1.67,7.18,4.14,13,13.33,13,20.51v73.89c0,7.15-5.74,9.52-12.93,5.48l-5.08-2.93c6.77,3.9,12.26,1.58,12.26-5.19V221c0-6.8-5.53-15.52-12.33-19.44-3.19-1.85-6.1-2.31-8.29-1.59A27.29,27.29,0,0,0,190,187.28c-2.89-1.67-5.54-2.21-7.65-1.75-1.05-6.35-6.08-13.62-12.13-17.11-2.83-1.64-5.45-2.18-7.53-1.77V138.83h0c0-.4.06-3.86.06-4.29,0-6.81-5.52-15.52-12.33-19.45C145.58,112.28,140.28,114,139.36,118.65Zm-22.64,79.78c0-.42,0-.83,0-1.24,0-7.17,5.83-9.64,13-5.49a27.32,27.32,0,0,1,8.5,8.08l2.64,4s-8.17-7.3-11.82-9.4c-6.41-3.7-11.68-1.85-12.28,4.07Z"/>
            <path class="cls-20" d="M183.93,122.33l-18.69,10.79v29.34l18.69-10.79Z"/>
        </g>
    </g>
</svg>