<svg>
    <symbol id="world" viewBox="0 0 29 29" fill="none" xmlns="http://www.w3.org/2000/svg">
        <path opacity=".5"
              d="M14.5 28C21.956 28 28 21.956 28 14.5S21.956 1 14.5 1m0 27C7.044 28 1 21.956 1 14.5S7.044 1 14.5 1m0 27c3.682 0 4.91-6.136 4.91-13.5S18.181 1 14.5 1m0 27c-3.682 0-4.91-6.136-4.91-13.5S10.819 1 14.5 1M2.227 19.41h24.546M2.227 9.59h24.546"
              stroke="#002527" stroke-width="2"/>
    </symbol>

    <symbol id="telegram" viewBox="0 0 56 55" xmlns="http://www.w3.org/2000/svg">
        <path d="M28.479 0C13.286 0 .979 12.31.979 27.5S13.289 55 28.479 55c15.192 0 27.5-12.31 27.5-27.5S43.669 0 28.479 0zm13.507 18.84l-4.514 21.27c-.333 1.507-1.231 1.873-2.484 1.163l-6.875-5.067-3.316 3.194c-.365.365-.676.675-1.385.675l.488-6.997 12.74-11.51c.555-.489-.122-.766-.855-.278l-15.746 9.913-6.786-2.119c-1.475-.465-1.508-1.474.31-2.184l26.514-10.224c1.231-.444 2.306.3 1.907 2.162l.002.002z"/>
    </symbol>

    <symbol id="instagram" viewBox="0 0 55 55" xmlns="http://www.w3.org/2000/svg">
        <path fill-rule="evenodd" clip-rule="evenodd"
              d="M27.49 54.979c15.181 0 27.489-12.308 27.489-27.49C54.979 12.307 42.67 0 27.489 0 12.307 0 0 12.307 0 27.49c0 15.18 12.307 27.488 27.49 27.488zm0-42.564c-4.096 0-4.608.016-6.216.09-1.603.074-2.7.329-3.66.7a7.39 7.39 0 00-2.668 1.74 7.394 7.394 0 00-1.74 2.67c-.372.958-.628 2.055-.701 3.66-.073 1.607-.09 2.12-.09 6.215 0 4.093.016 4.606.09 6.216.074 1.603.329 2.7.7 3.659a7.39 7.39 0 001.74 2.67 7.397 7.397 0 002.67 1.737c.96.373 2.056.63 3.66.702 1.607.073 2.12.09 6.214.09 4.095 0 4.608-.016 6.217-.09 1.603-.074 2.7-.33 3.659-.702a7.394 7.394 0 002.67-1.737 7.397 7.397 0 001.737-2.671c.373-.96.629-2.056.702-3.66.072-1.607.09-2.12.09-6.215 0-4.093-.016-4.606-.09-6.216-.074-1.603-.33-2.7-.702-3.659a7.364 7.364 0 00-1.738-2.668 7.416 7.416 0 00-2.67-1.74c-.959-.372-2.055-.628-3.661-.7-1.606-.074-2.119-.091-6.214-.091zm0 2.716c4.024 0 4.501.015 6.09.088 1.471.067 2.269.312 2.8.519a4.678 4.678 0 011.734 1.127 4.68 4.68 0 011.127 1.733c.207.532.452 1.33.52 2.8.072 1.59.087 2.067.087 6.091 0 4.026-.015 4.502-.088 6.092-.067 1.47-.312 2.268-.52 2.8a4.68 4.68 0 01-1.126 1.733 4.682 4.682 0 01-1.733 1.127c-.532.207-1.33.452-2.8.52-1.59.072-2.065.087-6.092.087-4.026 0-4.502-.015-6.091-.088-1.47-.067-2.268-.312-2.8-.519a4.68 4.68 0 01-1.734-1.127 4.68 4.68 0 01-1.126-1.733c-.207-.532-.452-1.33-.52-2.8-.072-1.59-.087-2.067-.087-6.092 0-4.024.015-4.501.087-6.091.068-1.47.313-2.268.52-2.8a4.675 4.675 0 011.126-1.733 4.68 4.68 0 011.734-1.127c.532-.207 1.33-.452 2.8-.52 1.59-.072 2.066-.087 6.091-.087zm1.461 17.177a5.028 5.028 0 01-3.387-.171 5.029 5.029 0 115.482-8.204 5.029 5.029 0 01-2.095 8.375zM24.524 20.33a7.749 7.749 0 105.93 14.317 7.749 7.749 0 00-5.93-14.317zm12.852-.03a1.831 1.831 0 11-3.352-1.475 1.831 1.831 0 013.352 1.474z"/>
    </symbol>

    <symbol id="search" viewBox="0 0 24 23" xmlns="http://www.w3.org/2000/svg">
        <path d="M9.606 2.4a7.204 7.204 0 100 14.409 7.204 7.204 0 000-14.409zM0 9.605a9.607 9.607 0 1117.195 5.891l6.468 6.469a1.2 1.2 0 01-1.698 1.698l-6.468-6.469A9.606 9.606 0 010 9.605z"/>
    </symbol>

    <symbol id="arrow-right" viewBox="0 0 28 16" xmlns="http://www.w3.org/2000/svg">
        <path d="M27.707 8.707a1 1 0 000-1.414L21.343.929a1 1 0 10-1.414 1.414L25.586 8l-5.657 5.657a1 1 0 001.414 1.414l6.364-6.364zM0 9h27V7H0v2z"/>
    </symbol>

    <symbol id="chevron-right" xmlns="http://www.w3.org/2000/svg" viewBox="0 0 407.436 407.436" xml:space="preserve">
        <path d="M112.814 0L91.566 21.178l181.946 182.54-181.946 182.54 21.248 21.178 203.055-203.718z"/>
    </symbol>

    <symbol id="chevron-left" xmlns="http://www.w3.org/2000/svg" viewBox="0 0 407.436 407.436" xml:space="preserve">
        <path d="M315.869 21.178L294.621 0 91.566 203.718l203.055 203.718 21.248-21.178-181.945-182.54z"/>
    </symbol>

    <symbol id="arrow-down" viewBox="0 0 24 25" xmlns="http://www.w3.org/2000/svg">
        <path d="M10.94 24.06a1.5 1.5 0 002.12 0l9.547-9.545a1.5 1.5 0 10-2.122-2.122L12 20.88l-8.485-8.486a1.5 1.5 0 10-2.122 2.122l9.546 9.546zM10.5 0v23h3V0h-3z"/>
    </symbol>

    <symbol id="map-arrow" viewBox="0 0 80 26" xmlns="http://www.w3.org/2000/svg">
        <path d="M68 2h1.5V.5H68V2zm-1.06 23.06a1.5 1.5 0 002.12 0l9.547-9.545a1.5 1.5 0 10-2.122-2.122L68 21.88l-8.485-8.486a1.5 1.5 0 10-2.122 2.122l9.546 9.546zM0 3.5h68v-3H0v3zM66.5 2v22h3V2h-3z"/>
    </symbol>

    <symbol id="chevron-up" viewBox="0 0 33 17" fill="none" xmlns="http://www.w3.org/2000/svg">
        <path opacity=".5" d="M1 16L15.11 2.346a2 2 0 012.78 0L32 16" stroke="#000" stroke-width="2"/>
    </symbol>

    <symbol id="chevron-top" viewBox="0 0 16 9" fill="none" xmlns="http://www.w3.org/2000/svg">
        <path d="M15 8L8 1 1 8" stroke="#0B959E"/>
    </symbol>

    <symbol id="chevron-down" viewBox="0 0 13 7" fill="none" xmlns="http://www.w3.org/2000/svg">
        <path d="M1 1l5.5 5L12 1" stroke="#fff"/>
    </symbol>

    <symbol id="map" viewBox="0 0 28 36" xmlns="http://www.w3.org/2000/svg">
        <path d="M12.561 35.28C1.966 20.463 0 18.944 0 13.5 0 6.044 6.267 0 14 0s14 6.044 14 13.5c0 5.444-1.966 6.96-12.561 21.774a1.743 1.743 0 01-.625.533 1.805 1.805 0 01-1.62.003 1.734 1.734 0 01-.628-.53l-.003-.006-.002.006zM14 19.125a5.95 5.95 0 004.125-1.647 5.525 5.525 0 001.708-3.978 5.525 5.525 0 00-1.708-3.977A5.945 5.945 0 0014 7.875c-1.547 0-3.03.593-4.125 1.648A5.525 5.525 0 008.167 13.5c0 1.492.614 2.923 1.708 3.978A5.945 5.945 0 0014 19.125z"/>
    </symbol>

    <symbol id="time" viewBox="0 0 36 36" xmlns="http://www.w3.org/2000/svg">
        <path d="M25.588 10.352c2.107 2.113 3.161 4.662 3.161 7.648 0 2.986-1.053 5.535-3.161 7.648-2.108 2.113-4.651 3.169-7.63 3.169-2.98 0-5.508-1.07-7.588-3.211L17.958 18V7.183c2.979 0 5.522 1.056 7.63 3.17zM18 0c4.974 0 9.218 1.76 12.73 5.282C34.245 8.802 36 13.042 36 18s-1.756 9.197-5.27 12.718C27.219 34.24 22.975 36 18 36s-9.218-1.76-12.73-5.282C1.755 27.198 0 22.958 0 18S1.756 8.803 5.27 5.282C8.781 1.76 13.025 0 18 0zm0 32.45c3.962 0 7.349-1.408 10.16-4.225C30.97 25.408 32.374 22 32.374 18s-1.405-7.409-4.216-10.225C25.35 4.958 21.962 3.549 18 3.549c-3.963 0-7.349 1.409-10.16 4.226C5.03 10.59 3.626 14 3.626 18s1.405 7.409 4.216 10.225c2.81 2.817 6.196 4.226 10.159 4.226z"/>
    </symbol>

    <symbol id="phone" viewBox="0 0 36 36" xmlns="http://www.w3.org/2000/svg">
        <path d="M35.339 28.2l-8.215-7.47a2.022 2.022 0 00-2.81.088l-4.837 4.973c-1.164-.222-3.504-.952-5.913-3.355-2.409-2.41-3.138-4.757-3.354-5.913l4.969-4.837a2.02 2.02 0 00.087-2.811L7.799.662A2.02 2.02 0 004.988.486L.603 4.247A2.02 2.02 0 00.017 5.56c-.03.505-.609 12.472 8.671 21.756C16.783 35.408 26.924 36 29.717 36c.408 0 .659-.012.725-.016a2.01 2.01 0 001.31-.588l3.758-4.387a2.014 2.014 0 00-.171-2.81z"/>
    </symbol>

    <symbol id="telegram" viewBox="0 0 36 31" xmlns="http://www.w3.org/2000/svg">
        <path d="M33.57.198L1.681 12.467c-2.176.872-2.164 2.083-.4 2.623l8.188 2.548L28.412 5.714c.895-.544 1.714-.251 1.041.345L14.106 19.878h-.004l.004.002-.565 8.42c.827 0 1.192-.38 1.656-.826l3.977-3.858 8.272 6.095c1.525.838 2.62.408 3-1.408l5.43-25.532c.556-2.223-.85-3.23-2.306-2.573z"/>
    </symbol>

    <symbol id="instagram" viewBox="0 0 36 37" xmlns="http://www.w3.org/2000/svg">
        <path d="M17.995 12.12c-3.305 0-6.002 2.697-6.002 6.003 0 3.305 2.697 6.002 6.002 6.002 3.305 0 6.003-2.697 6.003-6.002 0-3.306-2.698-6.003-6.003-6.003zm18.003 6.003c0-2.486.023-4.95-.117-7.43-.14-2.882-.797-5.44-2.904-7.548C30.864 1.034 28.31.381 25.43.241 22.944.101 20.48.124 18 .124c-2.486 0-4.95-.023-7.43.117-2.882.14-5.44.797-7.547 2.904C.91 5.257.258 7.811.118 10.693c-.14 2.485-.117 4.948-.117 7.43 0 2.48-.022 4.948.117 7.43.14 2.881.797 5.44 2.905 7.547 2.112 2.112 4.665 2.764 7.547 2.904 2.485.14 4.948.117 7.43.117 2.485 0 4.948.023 7.43-.117 2.881-.14 5.44-.797 7.547-2.904 2.111-2.112 2.764-4.666 2.904-7.547.144-2.482.117-4.945.117-7.43zm-18.003 9.235a9.223 9.223 0 01-9.235-9.235 9.223 9.223 0 019.235-9.236 9.223 9.223 0 019.236 9.236 9.223 9.223 0 01-9.236 9.235zm9.614-16.692a2.154 2.154 0 01-2.157-2.157c0-1.194.964-2.157 2.157-2.157a2.154 2.154 0 011.993 2.982 2.153 2.153 0 01-1.993 1.332z"/>
    </symbol>

    <symbol id="menu" viewBox="0 0 42 32" xmlns="http://www.w3.org/2000/svg">
        <path d="M0 2.456C0 1.319 1.115.399 2.487.399h20.025c.66 0 1.293.217 1.76.602.466.386.728.91.728 1.455s-.262 1.069-.729 1.454c-.466.386-1.099.603-1.759.603H2.488c-.66 0-1.293-.217-1.76-.603C.263 3.525 0 3.001 0 2.456zm0 13.37c0-1.136.937-2.056 2.09-2.056h37.82c.555 0 1.086.216 1.478.602.392.386.612.909.612 1.454a2.04 2.04 0 01-.612 1.455 2.106 2.106 0 01-1.477.603H2.088a2.106 2.106 0 01-1.477-.603A2.04 2.04 0 010 15.827zM2.457 27.14c-.652 0-1.277.216-1.737.602-.461.386-.72.91-.72 1.455s.259 1.068.72 1.454c.46.386 1.085.603 1.737.603h29.657c.652 0 1.277-.217 1.738-.603.46-.386.72-.909.72-1.454 0-.546-.26-1.07-.72-1.455-.461-.386-1.086-.602-1.738-.602H2.457z"/>
    </symbol>

    <symbol id="times" viewBox="0 0 33 32" fill="none" xmlns="http://www.w3.org/2000/svg">
        <path d="M19.76 15.998l11.456-11.43A2.676 2.676 0 0027.433.783L16.003 12.24 4.571.784A2.675 2.675 0 10.788 4.567l11.457 11.43L.788 27.429a2.664 2.664 0 000 3.784 2.665 2.665 0 003.784 0l11.43-11.457 11.43 11.457a2.665 2.665 0 003.784 0 2.664 2.664 0 000-3.784L19.76 15.998z"
              fill="#096C73"/>
    </symbol>

    <symbol id="logout_admin" viewBox="0 0 24 24" fill="none" xmlns="http://www.w3.org/2000/svg">
        <path fill="none" d="M0 0h24v24H0z"/>
        <path fill="#ffffff"
              d="M12 22C6.477 22 2 17.523 2 12S6.477 2 12 2a9.985 9.985 0 0 1 8 4h-2.71a8 8 0 1 0 .001 12h2.71A9.985 9.985 0 0 1 12 22zm7-6v-3h-8v-2h8V8l5 4-5 4z"/>
    </symbol>

    <symbol id="information" viewBox="0 0 138 138" xmlns="http://www.w3.org/2000/svg">
        <path d="M64,1C29.3,1,1,29.3,1,64s28.3,63,63,63s63-28.3,63-63S98.7,1,64,1z M64,119C33.7,119,9,94.3,9,64S33.7,9,64,9   s55,24.7,55,55S94.3,119,64,119z"/>
        <rect height="40" width="8" x="60" y="54.5"/>
        <rect height="8" width="8" x="60" y="35.5"/>
    </symbol>

    <symbol id="add_menu" viewBox="0 0 24 24" xmlns="http://www.w3.org/2000/svg">
        <path fill="none" d="M0 0h24v24H0z"/>
        <path d="M18 15l-.001 3H21v2h-3.001L18 23h-2l-.001-3H13v-2h2.999L16 15h2zm-7 3v2H3v-2h8zm10-7v2H3v-2h18zm0-7v2H3V4h18z"/>
    </symbol>

    <symbol id="chat_comment" viewBox="0 0 24 24" xmlns="http://www.w3.org/2000/svg">
        <path d="M10.7484,0.0003 C13.6214,0.0003 16.3214,1.1173 18.3494,3.1463 C22.5414,7.3383 22.5414,14.1583 18.3494,18.3503 C16.2944,20.4063 13.5274,21.4943 10.7244,21.4943 C9.1964,21.4943 7.6584,21.1713 6.2194,20.5053 C5.7954,20.3353 5.3984,20.1753 5.1134,20.1753 C4.7854,20.1773 4.3444,20.3293 3.9184,20.4763 C3.0444,20.7763 1.9564,21.1503 1.1514,20.3483 C0.3494,19.5453 0.7194,18.4603 1.0174,17.5873 C1.1644,17.1573 1.3154,16.7133 1.3154,16.3773 C1.3154,16.1013 1.1824,15.7493 0.9784,15.2423 C-0.8946,11.1973 -0.0286,6.3223 3.1484,3.1473 C5.1764,1.1183 7.8754,0.0003 10.7484,0.0003 Z M10.7494,1.5003 C8.2764,1.5003 5.9534,2.4623 4.2084,4.2083 C1.4744,6.9403 0.7304,11.1353 2.3554,14.6483 C2.5894,15.2273 2.8154,15.7913 2.8154,16.3773 C2.8154,16.9623 2.6144,17.5513 2.4374,18.0713 C2.2914,18.4993 2.0704,19.1453 2.2124,19.2873 C2.3514,19.4313 3.0014,19.2043 3.4304,19.0573 C3.9454,18.8813 4.5294,18.6793 5.1084,18.6753 C5.6884,18.6753 6.2354,18.8953 6.8144,19.1283 C10.3614,20.7683 14.5564,20.0223 17.2894,17.2903 C20.8954,13.6823 20.8954,7.8133 17.2894,4.2073 C15.5434,2.4613 13.2214,1.5003 10.7494,1.5003 Z M14.6963,10.163 C15.2483,10.163 15.6963,10.61 15.6963,11.163 C15.6963,11.716 15.2483,12.163 14.6963,12.163 C14.1443,12.163 13.6923,11.716 13.6923,11.163 C13.6923,10.61 14.1353,10.163 14.6873,10.163 L14.6963,10.163 Z M10.6875,10.163 C11.2395,10.163 11.6875,10.61 11.6875,11.163 C11.6875,11.716 11.2395,12.163 10.6875,12.163 C10.1355,12.163 9.6835,11.716 9.6835,11.163 C9.6835,10.61 10.1255,10.163 10.6785,10.163 L10.6875,10.163 Z M6.6783,10.163 C7.2303,10.163 7.6783,10.61 7.6783,11.163 C7.6783,11.716 7.2303,12.163 6.6783,12.163 C6.1263,12.163 5.6743,11.716 5.6743,11.163 C5.6743,10.61 6.1173,10.163 6.6693,10.163 L6.6783,10.163 Z"/>
    </symbol>

    <symbol id="market" viewBox="0 0 29 29" xmlns="http://www.w3.org/2000/svg">
        <path d="M24,29H8a3,3,0,0,1-3-3V16a1,1,0,0,1,2,0V26a1,1,0,0,0,1,1H24a1,1,0,0,0,1-1V16a1,1,0,0,1,2,0V26A3,3,0,0,1,24,29Z"/>
        <path d="M15,29H10a1,1,0,0,1-1-1V22a3,3,0,0,1,3-3h1a3,3,0,0,1,3,3v6A1,1,0,0,1,15,29Zm-4-2h3V22a1,1,0,0,0-1-1H12a1,1,0,0,0-1,1Z"/>
        <path d="M25,17a4,4,0,0,1-4-4,1,1,0,0,1,2,0,2,2,0,0,0,4,0v-.76L24.38,7H7.62L5,12.24V13a2,2,0,0,0,4,0,1,1,0,0,1,2,0,4,4,0,0,1-8,0V12a1,1,0,0,1,.11-.45l3-6A1,1,0,0,1,7,5H25a1,1,0,0,1,.89.55l3,6A1,1,0,0,1,29,12v1A4,4,0,0,1,25,17Z"/>
        <path d="M13,17a4,4,0,0,1-4-4,1,1,0,0,1,2,0,2,2,0,0,0,4,0,1,1,0,0,1,2,0A4,4,0,0,1,13,17Z"/>
        <path d="M19,17a4,4,0,0,1-4-4,1,1,0,0,1,2,0,2,2,0,0,0,4,0,1,1,0,0,1,2,0A4,4,0,0,1,19,17Z"/>
        <path d="M22,22H19a1,1,0,0,1,0-2h3a1,1,0,0,1,0,2Z"/>
        <rect fill="none" height="32" width="32"/>
    </symbol>

    <symbol id="packet" viewBox="0 0 288.86 288.86" xmlns="http://www.w3.org/2000/svg">
        <path d="m271.292,241.877l-12.181-160.092c-1.74-13.921-12.181-24.362-26.102-24.362h-45.243v-15.66c0-22.622-19.142-41.763-41.763-41.763s-41.763,19.141-41.763,41.763v15.661h-48.723c-13.921,0-24.362,10.441-26.102,24.362l-12.181,160.091c0,12.181 3.48,24.362 12.181,33.062 6.96,8.701 19.141,13.921 31.322,13.921h168.792c12.181,0 24.362-5.22 29.582-13.921 8.701-8.7 13.921-20.881 12.181-33.062zm-149.651-200.114c-1.42109e-14-13.921 10.441-24.362 24.362-24.362 13.921,0 24.362,10.441 24.362,24.362v15.661h-48.723v-15.661zm128.769,220.995c-5.22,5.22-12.181,8.701-19.141,8.701h-168.793c-6.96,0-13.921-3.48-19.141-8.701s-6.96-12.181-6.96-19.141l12.181-160.091c0-5.22 3.48-8.701 8.701-8.701h46.983v20.882c0,5.22 3.48,8.701 8.701,8.701 5.22,0 8.701-3.48 8.701-8.701v-20.882h48.723v20.882c0,5.22 3.48,8.701 8.701,8.701 3.48,0 8.701-3.48 8.701-8.701v-20.882h48.723c5.22,0 8.701,3.48 8.701,8.701l12.181,160.091c-0.002,6.96-1.742,13.921-6.962,19.141z"/>
    </symbol>

    <symbol id="parameters" viewBox="0 0 32 32" xmlns="http://www.w3.org/2000/svg">
        <path d="M32,16l-6-6v4h-2V8h-6V6h4l-6-6l-6,6h4v2H8v6H6v-4l-6,6l6,6v-4h2v6h6v2h-4l6,6l1.721-1.723
			C19.205,31.355,21.025,31.999,23,32c4.971-0.002,8.998-4.029,9-9c-0.001-1.975-0.645-3.795-1.723-5.277L32,16z M14.059,22H10V10
			h12v4.059C17.828,14.52,14.52,17.829,14.059,22z M23,29.883c-3.801-0.009-6.876-3.084-6.885-6.883
			c0.009-3.801,3.084-6.876,6.885-6.884c3.799,0.008,6.874,3.083,6.883,6.884C29.874,26.799,26.799,29.874,23,29.883z"/>
        <path d="M26.092,21.393l1.188-1.187l-1.416-1.415l-1.165,1.166c-0.22-0.123-0.452-0.221-0.697-0.294V18h-2
			v1.662c-0.229,0.068-0.446,0.158-0.651,0.27l-1.142-1.14l-1.415,1.415l1.141,1.141C19.82,21.555,19.73,21.771,19.662,22H18v2
			h1.662c0.072,0.246,0.172,0.479,0.295,0.698l-1.165,1.163l1.413,1.416l1.188-1.188c0.192,0.102,0.395,0.182,0.605,0.245V28H24
			v-1.665c0.229-0.067,0.445-0.158,0.65-0.271l1.213,1.213l1.414-1.416l-1.213-1.211c0.111-0.205,0.201-0.422,0.271-0.65H28v-2.001
			h-1.663C26.273,21.787,26.191,21.586,26.092,21.393z M22.999,24.499c-0.829-0.002-1.498-0.671-1.501-1.5
			c0.003-0.829,0.672-1.498,1.501-1.501c0.829,0.003,1.498,0.672,1.5,1.501C24.497,23.828,23.828,24.497,22.999,24.499z"/>
    </symbol>

    <symbol id="settings" viewBox="0 0 128 128" xmlns="http://www.w3.org/2000/svg">
        <path d="M64,39A25,25,0,1,0,89,64,25,25,0,0,0,64,39Zm0,44A19,19,0,1,1,83,64,19,19,0,0,1,64,83Z"/>
        <path d="M121,48h-8.93a1,1,0,0,1-.94-.68,49.9,49.9,0,0,0-2-4.85,1,1,0,0,1,.18-1.15L115.62,35a7,7,0,0,0,0-9.9L102.89,12.38a7,7,0,0,0-9.9,0l-6.31,6.31a1,1,0,0,1-1.15.18,49.76,49.76,0,0,0-4.85-2,1,1,0,0,1-.68-.94V7a7,7,0,0,0-7-7H55a7,7,0,0,0-7,7v8.93a1,1,0,0,1-.68.94,49.9,49.9,0,0,0-4.85,2,1,1,0,0,1-1.15-.18L35,12.38a7,7,0,0,0-9.9,0L12.38,25.11a7,7,0,0,0,0,9.9l6.31,6.31a1,1,0,0,1,.18,1.15,49.76,49.76,0,0,0-2,4.85,1,1,0,0,1-.94.68H7a7,7,0,0,0-7,7V73a7,7,0,0,0,7,7h8.93a1,1,0,0,1,.94.68,49.9,49.9,0,0,0,2,4.85,1,1,0,0,1-.18,1.15L12.38,93a7,7,0,0,0,0,9.9l12.73,12.73a7,7,0,0,0,9.9,0l6.31-6.31a1,1,0,0,1,1.15-.18,49.76,49.76,0,0,0,4.85,2,1,1,0,0,1,.68.94V121a7,7,0,0,0,7,7H73a7,7,0,0,0,7-7v-8.93a1,1,0,0,1,.68-.94,49.9,49.9,0,0,0,4.85-2,1,1,0,0,1,1.15.18L93,115.62a7,7,0,0,0,9.9,0l12.73-12.73a7,7,0,0,0,0-9.9l-6.31-6.31a1,1,0,0,1-.18-1.15,49.76,49.76,0,0,0,2-4.85,1,1,0,0,1,.94-.68H121a7,7,0,0,0,7-7V55A7,7,0,0,0,121,48Zm1,25a1,1,0,0,1-1,1h-8.93a7,7,0,0,0-6.6,4.69,43.9,43.9,0,0,1-1.76,4.26,7,7,0,0,0,1.35,8l6.31,6.31a1,1,0,0,1,0,1.41L98.65,111.38a1,1,0,0,1-1.41,0l-6.31-6.31a7,7,0,0,0-8-1.35,43.88,43.88,0,0,1-4.27,1.76,7,7,0,0,0-4.68,6.6V121a1,1,0,0,1-1,1H55a1,1,0,0,1-1-1v-8.93a7,7,0,0,0-4.69-6.6,43.9,43.9,0,0,1-4.26-1.76,7,7,0,0,0-8,1.35l-6.31,6.31a1,1,0,0,1-1.41,0L16.62,98.65a1,1,0,0,1,0-1.41l6.31-6.31a7,7,0,0,0,1.35-8,43.88,43.88,0,0,1-1.76-4.27A7,7,0,0,0,15.93,74H7a1,1,0,0,1-1-1V55a1,1,0,0,1,1-1h8.93a7,7,0,0,0,6.6-4.69,43.9,43.9,0,0,1,1.76-4.26,7,7,0,0,0-1.35-8l-6.31-6.31a1,1,0,0,1,0-1.41L29.35,16.62a1,1,0,0,1,1.41,0l6.31,6.31a7,7,0,0,0,8,1.35,43.88,43.88,0,0,1,4.27-1.76A7,7,0,0,0,54,15.93V7a1,1,0,0,1,1-1H73a1,1,0,0,1,1,1v8.93a7,7,0,0,0,4.69,6.6,43.9,43.9,0,0,1,4.26,1.76,7,7,0,0,0,8-1.35l6.31-6.31a1,1,0,0,1,1.41,0l12.73,12.73a1,1,0,0,1,0,1.41l-6.31,6.31a7,7,0,0,0-1.35,8,43.88,43.88,0,0,1,1.76,4.27,7,7,0,0,0,6.6,4.68H121a1,1,0,0,1,1,1Z"/>
    </symbol>

    <symbol id="plus_in_circle" viewBox="0 0 32 32" xmlns="http://www.w3.org/2000/svg">
        <path d="M16,29A13,13,0,1,1,29,16,13,13,0,0,1,16,29ZM16,5A11,11,0,1,0,27,16,11,11,0,0,0,16,5Z"/>
        <path d="M16,23a1,1,0,0,1-1-1V10a1,1,0,0,1,2,0V22A1,1,0,0,1,16,23Z"/>
        <path d="M22,17H10a1,1,0,0,1,0-2H22a1,1,0,0,1,0,2Z"/>
        <rect fill="none" class="cls-1" height="32" width="32"/>
    </symbol>

    <symbol id="plus" viewBox="0 0 512 512" xml:space="preserve" xmlns="http://www.w3.org/2000/svg">
        <path d="M381,236H276V131c0-11-9-20-20-20s-20,9-20,20v105H131c-11,0-20,9-20,20s9,20,20,20h105v105c0,11,9,20,20,20  s20-9,20-20V276h105c11,0,20-9,20-20S392,236,381,236z"/>
    </symbol>

    <symbol id="home" viewBox="0 0 23 23" xmlns="http://www.w3.org/2000/svg">
        <path fill-rule="evenodd" clip-rule="evenodd"
              d="M10.6868 2.63688C11.136 2.18777 11.8641 2.18777 12.3132 2.63688L20.3632 10.6869C20.6921 11.0158 20.7905 11.5104 20.6125 11.9401C20.4345 12.3699 20.0152 12.65 19.55 12.65H18.4V19.55C18.4 20.1852 17.8851 20.7 17.25 20.7H14.95C14.3149 20.7 13.8 20.1852 13.8 19.55V16.1C13.8 15.4649 13.2851 14.95 12.65 14.95H10.35C9.71489 14.95 9.20002 15.4649 9.20002 16.1V19.55C9.20002 20.1852 8.68515 20.7 8.05002 20.7H5.75002C5.11489 20.7 4.60002 20.1852 4.60002 19.55V12.65H3.45002C2.98489 12.65 2.56556 12.3699 2.38756 11.9401C2.20956 11.5104 2.30795 11.0158 2.63685 10.6869L10.6868 2.63688Z"/>
    </symbol>

    <symbol id="bookshelf" viewBox="0 0 20 21" xmlns="http://www.w3.org/2000/svg">
        <path d="M20 16.3333C20 16.1041 19.8125 15.9166 19.5833 15.9166H0.416667C0.1875 15.9166 0 16.1041 0 16.3333V18C0 18.2291 0.1875 18.4166 0.416667 18.4166H1.99167C1.79167 18.6375 1.66667 18.9291 1.66667 19.25C1.66667 19.6166 1.82917 19.95 2.08333 20.1791C2.30417 20.3791 2.6 20.5 2.91667 20.5C3.60417 20.5 4.16667 19.9375 4.16667 19.25C4.16667 18.9291 4.04167 18.6375 3.84167 18.4166H16.1583C15.9583 18.6375 15.8333 18.9291 15.8333 19.25C15.8333 19.9375 16.3958 20.5 17.0833 20.5C17.4 20.5 17.6958 20.3791 17.9167 20.1791C18.1708 19.95 18.3333 19.6166 18.3333 19.25C18.3333 18.9291 18.2083 18.6375 18.0083 18.4166H19.5833C19.8125 18.4166 20 18.2291 20 18V16.3333ZM4.16667 12.1666H2.08333V15.0833H5.41667V7.16663H2.08333V9.24996H4.16667C4.39583 9.24996 4.58333 9.43746 4.58333 9.66663C4.58333 9.89579 4.39583 10.0833 4.16667 10.0833H2.08333V11.3333H4.16667C4.39583 11.3333 4.58333 11.5208 4.58333 11.75C4.58333 11.9791 4.39583 12.1666 4.16667 12.1666Z"/>
        <path d="M9.58333 1.75H6.25V4.25H9.58333V1.75Z"/>
        <path d="M9.58333 5.08337H6.25V5.91671H9.58333V5.08337Z"/>
        <path d="M13.75 17.1666H10.4167V18H13.75V17.1666Z"/>
        <path d="M13.75 15.0833V5.91667H10.4167V15.0833H13.75ZM11.7875 6.87083C11.9417 6.71667 12.225 6.71667 12.3792 6.87083C12.4542 6.95 12.5 7.05833 12.5 7.16667C12.5 7.275 12.4542 7.38333 12.3792 7.4625C12.3 7.5375 12.1958 7.58333 12.0833 7.58333C11.975 7.58333 11.8667 7.5375 11.7875 7.4625C11.7125 7.38333 11.6667 7.275 11.6667 7.16667C11.6667 7.05417 11.7125 6.95 11.7875 6.87083ZM11.7875 8.5375C11.9417 8.38333 12.225 8.38333 12.3792 8.5375C12.4542 8.61667 12.5 8.725 12.5 8.83333C12.5 8.94167 12.4542 9.05 12.3792 9.12917C12.3583 9.14583 12.3375 9.1625 12.3167 9.17917C12.2917 9.19583 12.2667 9.20833 12.2417 9.21667C12.2167 9.22917 12.1917 9.2375 12.1667 9.24167C12.1375 9.24583 12.1125 9.25 12.0833 9.25C11.975 9.25 11.8667 9.20417 11.7875 9.12917C11.7125 9.05 11.6667 8.94583 11.6667 8.83333C11.6667 8.725 11.7125 8.61667 11.7875 8.5375ZM11.7875 10.2042C11.8875 10.1083 12.0292 10.0667 12.1667 10.0917C12.1917 10.0958 12.2167 10.1042 12.2417 10.1167C12.2667 10.125 12.2917 10.1375 12.3167 10.1542C12.3375 10.1667 12.3583 10.1875 12.3792 10.2042C12.4542 10.2833 12.5 10.3917 12.5 10.5C12.5 10.6083 12.4542 10.7167 12.3792 10.7958C12.3 10.8708 12.1958 10.9167 12.0833 10.9167C11.975 10.9167 11.8667 10.8708 11.7875 10.7958C11.75 10.7542 11.7208 10.7125 11.7 10.6583C11.6792 10.6083 11.6667 10.5542 11.6667 10.5C11.6667 10.3917 11.7125 10.2833 11.7875 10.2042ZM17.9167 18.4167V20.1792C17.6958 20.3792 17.4 20.5 17.0833 20.5C16.3958 20.5 15.8333 19.9375 15.8333 19.25C15.8333 18.9292 15.9583 18.6375 16.1583 18.4167H17.9167ZM17.9167 15.0833V14.25V5.5H15.8333C15.6042 5.5 15.4167 5.3125 15.4167 5.08333C15.4167 4.85417 15.6042 4.66667 15.8333 4.66667H17.9167V3.41667H15.8333C15.6042 3.41667 15.4167 3.22917 15.4167 3C15.4167 2.77083 15.6042 2.58333 15.8333 2.58333H17.9167V0.5H14.5833V15.0833H17.9167ZM6.25 6.75V15.0833H7.08333H7.5H8.33333H8.75H9.58333V6.75H6.25ZM7.53333 13.2583C7.55417 13.2042 7.58333 13.1625 7.62083 13.1208C7.6625 13.0833 7.70417 13.0542 7.75833 13.0333C7.83333 13 7.91667 12.9917 7.99583 13.0083C8.025 13.0125 8.05 13.0208 8.075 13.0333C8.1 13.0417 8.125 13.0542 8.14583 13.0708C8.17083 13.0833 8.19167 13.1042 8.2125 13.1208C8.2875 13.2 8.33333 13.3083 8.33333 13.4167C8.33333 13.4417 8.32917 13.4708 8.325 13.5C8.32083 13.525 8.3125 13.55 8.3 13.575C8.29167 13.6 8.27917 13.625 8.2625 13.65C8.24583 13.6708 8.22917 13.6917 8.2125 13.7125C8.19167 13.7292 8.17083 13.7458 8.14583 13.7625C8.125 13.7792 8.1 13.7917 8.075 13.8C8.05 13.8125 8.025 13.8208 7.99583 13.825C7.97083 13.8292 7.94167 13.8333 7.91667 13.8333C7.80833 13.8333 7.7 13.7875 7.62083 13.7125C7.54583 13.6333 7.5 13.5292 7.5 13.4167C7.5 13.3625 7.5125 13.3083 7.53333 13.2583Z"/>
        <rect width="30" height="30" fill="none" transform="translate(0 0.5)"/>
    </symbol>

    <symbol id="language" viewBox="0 0 20 20" xmlns="http://www.w3.org/2000/svg">
        <path d="M14.1667 16.6667H2.08333C1.531 16.666 1.00148 16.4463 0.610925 16.0557C0.220367 15.6652 0.000661607 15.1357 0 14.5833L0 2.08333C0 0.935 0.935 0 2.08333 0H8.75C8.83686 4.95826e-06 8.92155 0.0271571 8.99223 0.0776595C9.0629 0.128162 9.11602 0.199489 9.14417 0.281667L14.5608 16.115C14.5819 16.1777 14.5878 16.2446 14.5781 16.31C14.5683 16.3755 14.5432 16.4377 14.5047 16.4915C14.4662 16.5454 14.4155 16.5893 14.3568 16.6198C14.298 16.6502 14.2328 16.6663 14.1667 16.6667ZM2.08333 0.833333C1.39417 0.833333 0.833333 1.39417 0.833333 2.08333V14.5833C0.833333 15.2725 1.39417 15.8333 2.08333 15.8333H13.5833L8.4525 0.833333H2.08333Z"/>
        <path d="M17.9167 20H11.25C11.1652 20 11.0825 19.9742 11.0128 19.926C10.9431 19.8777 10.8898 19.8094 10.86 19.73L9.60999 16.3967C9.5711 16.2933 9.57488 16.1786 9.62051 16.078C9.66615 15.9773 9.74989 15.8989 9.85333 15.86C9.95676 15.8211 10.0714 15.8249 10.1721 15.8706C10.2727 15.9162 10.3511 15.9999 10.39 16.1034L11.5392 19.1667H17.9167C18.6058 19.1667 19.1667 18.6059 19.1667 17.9167V5.41671C19.1667 4.72754 18.6058 4.16671 17.9167 4.16671H10C9.88949 4.16671 9.78351 4.12281 9.70537 4.04467C9.62723 3.96653 9.58333 3.86055 9.58333 3.75004C9.58333 3.63953 9.62723 3.53355 9.70537 3.45541C9.78351 3.37727 9.88949 3.33337 10 3.33337H17.9167C19.065 3.33337 20 4.26837 20 5.41671V17.9167C20 19.065 19.065 20 17.9167 20Z"/>
        <path d="M11.25 20C11.1699 20.0001 11.0914 19.977 11.024 19.9336C10.9567 19.8902 10.9032 19.8283 10.8702 19.7553C10.8371 19.6823 10.8258 19.6013 10.8376 19.522C10.8494 19.4428 10.8838 19.3686 10.9367 19.3084L13.8533 15.975C13.8894 15.9338 13.9332 15.9001 13.9823 15.8759C14.0314 15.8516 14.0848 15.8372 14.1394 15.8336C14.194 15.83 14.2488 15.8371 14.3007 15.8547C14.3526 15.8722 14.4005 15.8998 14.4417 15.9359C14.4829 15.9719 14.5166 16.0158 14.5408 16.0648C14.5651 16.1139 14.5795 16.1673 14.5831 16.2219C14.5867 16.2766 14.5796 16.3314 14.562 16.3832C14.5445 16.4351 14.5169 16.483 14.4808 16.5242L11.5642 19.8575C11.5249 19.9023 11.4766 19.9381 11.4225 19.9627C11.3683 19.9873 11.3095 20 11.25 20ZM7.91667 11.6667C7.83067 11.6668 7.74674 11.6403 7.67645 11.5908C7.60615 11.5412 7.55295 11.4711 7.52417 11.39L5.83334 6.65587L4.1425 11.39C4.10537 11.4941 4.02841 11.5792 3.92855 11.6266C3.82868 11.6739 3.7141 11.6797 3.61 11.6425C3.50591 11.6054 3.42082 11.5284 3.37347 11.4286C3.32612 11.3287 3.32037 11.2141 3.3575 11.11L5.44084 5.2767C5.55917 4.94504 6.1075 4.94504 6.225 5.2767L8.30834 11.11C8.33075 11.1729 8.33775 11.2401 8.32876 11.3062C8.31977 11.3723 8.29504 11.4353 8.25667 11.4898C8.21829 11.5443 8.16738 11.5889 8.10821 11.6197C8.04905 11.6504 7.98336 11.6666 7.91667 11.6667Z"/>
        <path d="M6.66667 9.16671H5C4.8895 9.16671 4.78351 9.12281 4.70537 9.04467C4.62723 8.96653 4.58334 8.86055 4.58334 8.75004C4.58334 8.63953 4.62723 8.53355 4.70537 8.45541C4.78351 8.37727 4.8895 8.33337 5 8.33337H6.66667C6.77718 8.33337 6.88316 8.37727 6.9613 8.45541C7.03944 8.53355 7.08334 8.63953 7.08334 8.75004C7.08334 8.86055 7.03944 8.96653 6.9613 9.04467C6.88316 9.12281 6.77718 9.16671 6.66667 9.16671ZM17.9167 9.16671H12.0833C11.9728 9.16671 11.8668 9.12281 11.7887 9.04467C11.7106 8.96653 11.6667 8.86055 11.6667 8.75004C11.6667 8.63953 11.7106 8.53355 11.7887 8.45541C11.8668 8.37727 11.9728 8.33337 12.0833 8.33337H17.9167C18.0272 8.33337 18.1332 8.37727 18.2113 8.45541C18.2894 8.53355 18.3333 8.63953 18.3333 8.75004C18.3333 8.86055 18.2894 8.96653 18.2113 9.04467C18.1332 9.12281 18.0272 9.16671 17.9167 9.16671Z"/>
        <path d="M14.5833 9.16667C14.4728 9.16667 14.3668 9.12277 14.2887 9.04463C14.2106 8.96649 14.1667 8.86051 14.1667 8.75V7.91667C14.1667 7.80616 14.2106 7.70018 14.2887 7.62204C14.3668 7.5439 14.4728 7.5 14.5833 7.5C14.6938 7.5 14.7998 7.5439 14.878 7.62204C14.9561 7.70018 15 7.80616 15 7.91667V8.75C15 8.86051 14.9561 8.96649 14.878 9.04463C14.7998 9.12277 14.6938 9.16667 14.5833 9.16667ZM13.3333 14.1667C13.2445 14.1677 13.1577 14.1403 13.0857 14.0883C13.0136 14.0364 12.9602 13.9627 12.9331 13.8781C12.9061 13.7935 12.9069 13.7024 12.9354 13.6183C12.9639 13.5342 13.0187 13.4615 13.0917 13.4108C14.9158 12.115 16.25 9.47167 16.25 8.75083C16.25 8.64033 16.2939 8.53435 16.372 8.45621C16.4502 8.37807 16.5562 8.33417 16.6667 8.33417C16.7772 8.33417 16.8832 8.37807 16.9613 8.45621C17.0394 8.53435 17.0833 8.64033 17.0833 8.75083C17.0833 9.84917 15.4775 12.7383 13.575 14.0908C13.5041 14.1402 13.4198 14.1667 13.3333 14.1667Z"/>
        <path d="M16.6667 14.9999C16.5626 15.0003 16.4623 14.9613 16.3858 14.8908C16.0833 14.6141 13.4208 12.1549 12.9475 10.9899C12.9103 10.8885 12.9139 10.7766 12.9576 10.6777C13.0013 10.5789 13.0818 10.501 13.1819 10.4603C13.282 10.4196 13.394 10.4195 13.4943 10.4598C13.5945 10.5002 13.6751 10.5779 13.7192 10.6766C14.06 11.5158 16.1658 13.5591 16.9483 14.2758C17.0104 14.3325 17.0538 14.4066 17.0729 14.4885C17.092 14.5703 17.086 14.656 17.0555 14.7343C17.025 14.8126 16.9716 14.8799 16.9022 14.9273C16.8328 14.9747 16.7507 15 16.6667 14.9999Z"/>
    </symbol>

    <symbol id="checked_in_circle" viewBox="0 0 15 16" xmlns="http://www.w3.org/2000/svg">
        <path d="M7.5 0.5C3.35697 0.5 0 3.85697 0 8C0 12.143 3.35697 15.5 7.5 15.5C11.643 15.5 15 12.143 15 8C15 3.85697 11.643 0.5 7.5 0.5ZM6.34255 10.6575C6.25601 10.744 6.13341 10.8161 6.02524 10.8161C5.91707 10.8161 5.79447 10.7404 5.70433 10.6538L3.6851 8.63462L4.32692 7.99279L6.02885 9.69471L10.5288 5.16226L11.1599 5.8149L6.34255 10.6575Z"/>
    </symbol>

    <symbol id="cross_in_circle" xmlns="http://www.w3.org/2000/svg" viewBox="0 0 25 25">
        <path fill-rule="evenodd"
              d="M12,2 C17.5229861,2 22,6.47701386 22,12 C22,17.5229861 17.5229861,22 12,22 C6.47701386,22 2,17.5229861 2,12 C2,6.47701386 6.47701386,2 12,2 Z M13.4142136,12 L16.2426407,9.17157288 C16.633165,8.78104858 16.633165,8.1478836 16.2426407,7.75735931 C15.8521164,7.36683502 15.2189514,7.36683502 14.8284271,7.75735931 L12,10.5857864 L9.17157288,7.75735931 C8.78104858,7.36683502 8.1478836,7.36683502 7.75735931,7.75735931 C7.36683502,8.1478836 7.36683502,8.78104858 7.75735931,9.17157288 L10.5857864,12 L7.75735931,14.8284271 C7.36683502,15.2189514 7.36683502,15.8521164 7.75735931,16.2426407 C8.1478836,16.633165 8.78104858,16.633165 9.17157288,16.2426407 L12,13.4142136 L14.8284271,16.2426407 C15.2189514,16.633165 15.8521164,16.633165 16.2426407,16.2426407 C16.633165,15.8521164 16.633165,15.2189514 16.2426407,14.8284271 L13.4142136,12 Z"/>
    </symbol>

    <symbol id="sort_arrow_up" xmlns="http://www.w3.org/2000/svg" viewBox="0 0 24 24">
        <path d="M8,5.70710678 L8,19.508331 C8,19.7844734 7.77614237,20.008331 7.5,20.008331 C7.22385763,20.008331 7,19.7844734 7,19.508331 L7,5.70710678 L4.85355339,7.85355339 C4.65829124,8.04881554 4.34170876,8.04881554 4.14644661,7.85355339 C3.95118446,7.65829124 3.95118446,7.34170876 4.14644661,7.14644661 L7.14644661,4.14644661 C7.34170876,3.95118446 7.65829124,3.95118446 7.85355339,4.14644661 L10.8535534,7.14644661 C11.0488155,7.34170876 11.0488155,7.65829124 10.8535534,7.85355339 C10.6582912,8.04881554 10.3417088,8.04881554 10.1464466,7.85355339 L8,5.70710678 Z M12.5,6 C12.2238576,6 12,5.77614237 12,5.5 C12,5.22385763 12.2238576,5 12.5,5 L20.5,5 C20.7761424,5 21,5.22385763 21,5.5 C21,5.77614237 20.7761424,6 20.5,6 L12.5,6 Z M12.5,10 C12.2238576,10 12,9.77614237 12,9.5 C12,9.22385763 12.2238576,9 12.5,9 L18.5,9 C18.7761424,9 19,9.22385763 19,9.5 C19,9.77614237 18.7761424,10 18.5,10 L12.5,10 Z M12.5,14 C12.2238576,14 12,13.7761424 12,13.5 C12,13.2238576 12.2238576,13 12.5,13 L16.5,13 C16.7761424,13 17,13.2238576 17,13.5 C17,13.7761424 16.7761424,14 16.5,14 L12.5,14 Z M12.5,18 C12.2238576,18 12,17.7761424 12,17.5 C12,17.2238576 12.2238576,17 12.5,17 L14.5,17 C14.7761424,17 15,17.2238576 15,17.5 C15,17.7761424 14.7761424,18 14.5,18 L12.5,18 Z"/>
    </symbol>

    <symbol id="open_book" viewBox="0 0 29 29" xmlns="http://www.w3.org/2000/svg">
        <path d="M14.5 25.9022C14.342 25.9022 14.183 25.8642 14.037 25.7892C12.4047 24.9378 10.591 24.4931 8.75 24.4931C6.90902 24.4931 5.09527 24.9378 3.463 25.7892C3.31046 25.8682 3.14017 25.9067 2.96847 25.9009C2.79676 25.8952 2.62942 25.8454 2.48252 25.7563C2.33561 25.6673 2.21407 25.5419 2.12957 25.3923C2.04507 25.2428 2.00045 25.074 2 24.9022V5.90216C1.99999 5.74086 2.039 5.58195 2.1137 5.43899C2.18841 5.29603 2.29658 5.17326 2.429 5.08116C6.21 2.45016 11.29 2.45016 15.072 5.08116C15.34 5.26816 15.5 5.57516 15.5 5.90216V24.9022C15.5 25.1674 15.3946 25.4217 15.2071 25.6093C15.0196 25.7968 14.7652 25.9022 14.5 25.9022ZM8.75 22.4932C10.36 22.4932 11.971 22.7822 13.5 23.3602V6.44216C12.0694 5.56909 10.4259 5.10718 8.75 5.10718C7.07407 5.10718 5.43056 5.56909 4 6.44216V23.3602C5.51799 22.7867 7.1273 22.493 8.75 22.4932Z"/>
        <path d="M26 25.9022C25.842 25.9022 25.683 25.8642 25.537 25.7892C23.9047 24.9378 22.091 24.4931 20.25 24.4931C18.409 24.4931 16.5953 24.9378 14.963 25.7892C14.8105 25.8682 14.6402 25.9067 14.4685 25.9009C14.2968 25.8952 14.1294 25.8454 13.9825 25.7563C13.8356 25.6673 13.7141 25.5419 13.6296 25.3923C13.5451 25.2428 13.5005 25.074 13.5 24.9022V5.90216C13.5 5.74086 13.539 5.58195 13.6137 5.43899C13.6884 5.29603 13.7966 5.17326 13.929 5.08116C17.71 2.45016 22.79 2.45016 26.572 5.08116C26.84 5.26816 27 5.57516 27 5.90216V24.9022C27 25.1674 26.8946 25.4217 26.7071 25.6093C26.5196 25.7968 26.2652 25.9022 26 25.9022ZM20.25 22.4932C21.86 22.4932 23.471 22.7822 25 23.3602V6.44216C23.5694 5.56909 21.9259 5.10718 20.25 5.10718C18.5741 5.10718 16.9306 5.56909 15.5 6.44216V23.3602C17.018 22.7867 18.6273 22.493 20.25 22.4932Z"/>
    </symbol>

    <symbol id="arm_gift" viewBox="0 0 21 21" xmlns="http://www.w3.org/2000/svg">
        <path d="M3.36656 12.1897H0.137812C0.065625 12.1897 0 12.2488 0 12.3275V18.831C0 18.9064 0.065625 18.9688 0.137812 18.9688H3.36328C3.44203 18.9688 3.50109 18.9031 3.50109 18.831V12.3275C3.50191 12.3095 3.49901 12.2915 3.49258 12.2746C3.48615 12.2577 3.47632 12.2424 3.46371 12.2294C3.4511 12.2165 3.43597 12.2063 3.41926 12.1995C3.40255 12.1927 3.38461 12.1893 3.36656 12.1897ZM2.11641 18.3585C1.80469 18.3585 1.54875 18.1025 1.54875 17.7908C1.54875 17.4758 1.80469 17.2199 2.11641 17.2199C2.43141 17.2199 2.68734 17.4758 2.68734 17.7908C2.68734 18.1025 2.43141 18.3585 2.11641 18.3585ZM20.1305 14.8442L14.9625 16.5472C14.7623 16.731 14.4998 16.836 14.2308 16.836H8.84953C8.80471 16.836 8.76173 16.8182 8.73004 16.7865C8.69835 16.7548 8.68055 16.7118 8.68055 16.667C8.68055 16.6222 8.69835 16.5792 8.73004 16.5475C8.76173 16.5158 8.80471 16.498 8.84953 16.498H14.2308C14.4178 16.498 14.5983 16.4258 14.7361 16.3011C14.7459 16.288 14.7591 16.2781 14.7722 16.265C14.9002 16.1305 14.9723 15.9467 14.9723 15.7531C14.9723 15.343 14.6409 15.0083 14.2308 15.0083H10.5164C10.418 15.0083 10.3327 14.9722 10.2638 14.8967C8.6625 13.0789 5.72906 12.8033 4.12125 12.8033C4.02281 12.8033 3.92766 12.8066 3.83906 12.8066V18.1025L8.77734 19.7858C9.94547 20.1828 11.1956 20.2878 12.4261 20.068C13.2088 19.9316 13.9644 19.6701 14.6639 19.2936L20.6555 16.0386C20.8687 15.9238 20.9967 15.7039 20.9967 15.4644C20.9967 15.366 20.977 15.2741 20.9311 15.1855C20.8636 15.0395 20.7444 14.9238 20.5965 14.8608C20.4485 14.7977 20.2825 14.7918 20.1305 14.8442ZM8.72484 3.69127L8.70187 5.28924C8.70187 5.30564 8.71172 5.31549 8.72484 5.31549H20.9803C20.9902 5.31549 21 5.30564 21 5.28924V3.71096L8.72484 3.69127ZM13.9388 12.9083V5.64689H9.30562V12.7377C9.30562 12.8328 9.38109 12.9116 9.47625 12.9116H13.9388V12.9083ZM20.3995 12.7377V5.64689H15.7631V12.9083H20.2289C20.3208 12.9083 20.3995 12.8295 20.3995 12.7377ZM14.2734 5.64689H15.4317V12.9083H14.2734V5.64689ZM12.9511 3.3008L13.7222 3.55674H15.8452L16.6195 3.3008C16.826 3.2332 17.0116 3.1134 17.1582 2.95301C17.3048 2.79262 17.4075 2.59707 17.4563 2.38533C17.5613 1.95549 17.4333 1.50924 17.1183 1.19096C16.8787 0.948145 16.5605 0.816895 16.2225 0.816895C16.1208 0.816895 16.0223 0.830019 15.9239 0.852988C15.7122 0.901846 15.5167 1.00454 15.3563 1.15113C15.1959 1.29771 15.0761 1.48323 15.0084 1.68971L14.7886 2.3558L14.5655 1.68971C14.4178 1.26643 14.0766 0.951426 13.6434 0.852988C13.4321 0.80137 13.211 0.80537 13.0017 0.864599C12.7924 0.923828 12.602 1.03627 12.4491 1.19096C12.1341 1.50596 12.0061 1.95221 12.1078 2.38533C12.1586 2.59721 12.2627 2.79257 12.4103 2.95282C12.5579 3.11307 12.7441 3.23286 12.9511 3.3008ZM15.7041 1.92268C15.7631 1.74549 15.9075 1.61424 16.088 1.57158C16.1306 1.56174 16.1733 1.55518 16.2127 1.55518C16.3538 1.55518 16.4883 1.61096 16.5867 1.71268C16.718 1.84064 16.7738 2.03096 16.7311 2.21143C16.6852 2.39518 16.5539 2.53955 16.3767 2.59861L15.3595 2.93658L15.7041 1.92268ZM12.9708 1.71596C13.0725 1.61424 13.207 1.55846 13.3481 1.55846C13.3908 1.55846 13.4334 1.56502 13.4761 1.57486C13.6566 1.61752 13.8009 1.74877 13.86 1.92596L14.198 2.94314L13.1808 2.60518C13.0036 2.54611 12.8723 2.40174 12.8264 2.22127C12.787 2.03424 12.8395 1.84721 12.9708 1.71596Z"/>
        <rect width="21" height="21" fill="none"/>
    </symbol>

    <symbol id="cash_from_hand_to_hand" xmlns="http://www.w3.org/2000/svg" viewBox="0 0 512 512">
        <path d="M461.72,53.8H382.66L285.19,22a41.43,41.43,0,0,0-35.31,4.54L191.15,64.27a5.73,5.73,0,0,0,6.19,9.65l58.73-37.68A29.94,29.94,0,0,1,281.63,33L380,65a5.6,5.6,0,0,0,1.77.28H456v96.31H413.35a5.74,5.74,0,0,0-5.09,3.1,57.68,57.68,0,0,1-27.93,24.08V163c9.19-3.92,19-10.74,25.26-22.63A5.73,5.73,0,1,0,395.43,135c-10.9,20.84-38,21.77-38.15,21.77-36.3,0-46.78-25.34-47.2-26.39a5.74,5.74,0,0,0-5.35-3.68H250.86a15.31,15.31,0,1,1,0-30.61h64.3a5.74,5.74,0,1,0,0-11.47h-64.3a26.78,26.78,0,1,0,0,53.55h50.28c4.79,8.79,20.13,30.07,56.26,30.07a61.92,61.92,0,0,0,11.46-1.59v85a8.47,8.47,0,0,1-8.46,8.46H64.47A8.48,8.48,0,0,1,56,251.67V104.55a8.47,8.47,0,0,1,8.46-8.46H210.69a5.74,5.74,0,1,0,0-11.47H64.47a20,20,0,0,0-19.93,19.93V251.67A20,20,0,0,0,64.47,271.6H360.4a20,20,0,0,0,19.93-19.93V200.92c20.56-6.55,32.07-21.38,36.27-27.87h45.12a5.74,5.74,0,0,0,5.74-5.73V59.54A5.74,5.74,0,0,0,461.72,53.8Z"/>
        <path d="M83.43,208.33V147.88a30.72,30.72,0,0,0,24.37-24.37h97.93a5.74,5.74,0,0,0,0-11.47H102.61a5.74,5.74,0,0,0-5.74,5.74A19.19,19.19,0,0,1,77.7,137,5.74,5.74,0,0,0,72,142.69v70.84a5.73,5.73,0,0,0,5.74,5.73,19.2,19.2,0,0,1,19.17,19.18,5.73,5.73,0,0,0,5.74,5.73H322.26a5.73,5.73,0,0,0,5.74-5.73,19.2,19.2,0,0,1,19.17-19.18,5.73,5.73,0,0,0,5.74-5.73V187.61a5.74,5.74,0,1,0-11.47,0v20.72a30.74,30.74,0,0,0-24.37,24.37H107.8A30.74,30.74,0,0,0,83.43,208.33Z"/>
        <path d="M204.9,159.24h13.8a5.74,5.74,0,0,0,0-11.47h-4.51v-3.69a5.74,5.74,0,1,0-11.47,0v3.83a18,18,0,0,0,2.18,35.93H212A6.57,6.57,0,1,1,212,197H198.22a5.74,5.74,0,1,0,0,11.47h4.5v3.69a5.74,5.74,0,0,0,11.47,0V208.3A18,18,0,0,0,212,172.37H204.9a6.57,6.57,0,1,1,0-13.13Z"/>
        <path d="M145.23,174.06a5.76,5.76,0,0,0-1.68,4,5.29,5.29,0,0,0,.12,1.13,5,5,0,0,0,.33,1.06,4.87,4.87,0,0,0,.53,1,5.26,5.26,0,0,0,.7.86,5.94,5.94,0,0,0,.87.72,5.86,5.86,0,0,0,1,.52,6.46,6.46,0,0,0,1.08.34,6,6,0,0,0,1.12.1,5.77,5.77,0,0,0,4.05-1.68,6,6,0,0,0,.72-.86,8,8,0,0,0,.53-1,7.63,7.63,0,0,0,.32-1.06,5.28,5.28,0,0,0,.11-1.13,5.73,5.73,0,0,0-9.79-4Z"/>
        <path d="M270.81,181.3a6.56,6.56,0,0,0,.72.86,5.71,5.71,0,0,0,8.81-.86,4.87,4.87,0,0,0,.53-1,5,5,0,0,0,.33-1.06,5.24,5.24,0,0,0,.12-1.11,5.74,5.74,0,1,0-11.47,0,6,6,0,0,0,.11,1.11,6.51,6.51,0,0,0,.33,1.06A6.87,6.87,0,0,0,270.81,181.3Z"/>
        <path d="M415.51,317.64a27.18,27.18,0,0,0-36.66,2.82l-36.27,39.21a5.74,5.74,0,1,0,8.42,7.79l36.27-39.21a15.64,15.64,0,0,1,21.11-1.62,15.57,15.57,0,0,1,2.37,22.05L347.61,425.9a28.92,28.92,0,0,1-18.3,10.35L207.09,453.94a40.9,40.9,0,0,0-29.77,20.58l-3.34,6H61.55l58.24-86.07a81.93,81.93,0,0,1,76.89-35.77,130.22,130.22,0,0,1,28.93,6.39,59.62,59.62,0,0,0,19.83,3.48h58.45a16.92,16.92,0,0,1,16.9,16.9,18.26,18.26,0,0,1-18.24,18.24H249A37.57,37.57,0,0,0,225,412.35l-12.58,10.44a5.74,5.74,0,0,0,7.33,8.83l12.57-10.44a26.08,26.08,0,0,1,16.62-6h53.59a29.75,29.75,0,0,0,29.71-29.71,28.41,28.41,0,0,0-28.37-28.37H245.44a48.12,48.12,0,0,1-16-2.83,141.49,141.49,0,0,0-31.49-7A93.38,93.38,0,0,0,110.29,388l-64.3,95A5.74,5.74,0,0,0,50.74,492H177.36a5.73,5.73,0,0,0,5-3l5-9a29.4,29.4,0,0,1,21.39-14.78L331,447.6a40.38,40.38,0,0,0,25.54-14.44l63.14-77.22a27,27,0,0,0-4.12-38.3Z"/>
    </symbol>

    <symbol id="clock" viewBox="0 0 64 64" xmlns="http://www.w3.org/2000/svg">
        <path d="M23.64415,44.5794l7.27032-8.28613c0.33858,0.11951,0.70707,0.17926,1.08553,0.17926   c1.88232,0,3.40612-1.53371,3.40612-3.40606c0-1.53371-1.01587-2.83837-2.41019-3.26661V16.49421h-1.99186v13.30565   c-1.39426,0.42824-2.41013,1.73291-2.41013,3.26661c0,0.76688,0.25895,1.48392,0.69716,2.06158l-7.14085,8.13671L23.64415,44.5794z"/>
        <path d="M55.52382,12.95868l-2.27068,1.94207c0.90019,1.05374,1.69503,2.17957,2.42283,3.34284l-1.59206,0.91928l0.99593,1.72537   l1.58951-0.91782c0.83259,1.56963,1.51389,3.21002,2.03398,4.90633l-1.77412,0.47565l0.51547,1.92378l1.77242-0.47517   c0.39615,1.72111,0.62999,3.48131,0.69406,5.26516h-4.48071v1.99186h4.5001c-0.0634,1.80603-0.29967,3.56787-0.69169,5.27197   l-1.79418-0.481l-0.51547,1.92377l1.79947,0.48246c-0.52599,1.71206-1.21403,3.35329-2.04329,4.90876l-1.60556-0.92706   l-0.99593,1.72537l1.60045,0.92414c-0.94669,1.50641-2.03197,2.9163-3.2398,4.21202l-3.17252-3.17251l-1.40831,1.4083   l3.17221,3.17221c-1.29591,1.20686-2.70598,2.29136-4.21257,3.23732l-0.9228-1.59814l-1.72537,0.99593l0.9253,1.60246   c-1.55547,0.82846-3.19659,1.51608-4.90865,2.04164l-0.48082-1.79424l-1.92377,0.51547l0.47936,1.78865   c-1.70349,0.39171-3.46478,0.6278-5.27032,0.69145v-4.49432h-1.99186v4.49432c-1.80548-0.06358-3.56666-0.29962-5.27008-0.6912   l0.47912-1.78889l-1.92377-0.51547l-0.48064,1.79448c-1.71212-0.52556-3.35336-1.213-4.90882-2.04146l0.92529-1.60288   l-1.72537-0.99593l-0.9228,1.59856c-1.50672-0.94596-2.91679-2.03033-4.21276-3.23719l3.17239-3.17276l-1.4083-1.4083   l-3.1727,3.17306c-1.20795-1.29579-2.2933-2.70573-3.24011-4.21227l1.60094-0.92444l-0.99593-1.72537l-1.6061,0.92742   c-0.82931-1.55553-1.51742-3.19671-2.0434-4.90882l1.80062-0.48277l-0.51547-1.92377L4.7612,39.33029   c-0.39207-1.70422-0.62835-3.46611-0.69175-5.27227h4.50082v-1.99186H4.06963c0.06389-1.80585,0.30041-3.56732,0.69248-5.27105   l1.79442,0.48107l0.51547-1.92378l-1.79977-0.48252c0.52599-1.71212,1.21391-3.35336,2.04298-4.90876l1.60568,0.92712   l0.99593-1.72537l-1.60076-0.92432c0.94663-1.50672,2.03185-2.91685,3.23956-4.21276l3.17306,3.17343l1.4083-1.4083   l-3.17294-3.17331c1.29597-1.20722,2.70604-2.2919,4.21276-3.23804l0.92335,1.59899l1.72537-0.99593l-0.9259-1.60349   c1.55553-0.8287,3.19677-1.5162,4.90888-2.04182l0.48119,1.79643l1.92377-0.51547l-0.47967-1.7909   c1.70354-0.39171,3.46496-0.6278,5.27063-0.69139v4.49651h1.99186V5.14717c1.25464,0.04352,2.49894,0.16558,3.72792,0.37469   l-0.96043,0.5675l1.52015,2.57152l5.43141-3.20953L39.47955,0l-2.56957,1.52502l0.66464,1.11999   C35.74282,2.31147,33.88086,2.12297,32,2.12297c-17.06026,0-30.9435,13.87327-30.9435,30.9435C1.0565,50.12673,14.93974,64,32,64   s30.9435-13.87327,30.9435-30.93353C62.9435,25.69658,60.30433,18.55579,55.52382,12.95868z"/>
    </symbol>

    <symbol id="plus" viewBox="0 0 512 512" xml:space="preserve" xmlns="http://www.w3.org/2000/svg">
        <path d="M381,236H276V131c0-11-9-20-20-20s-20,9-20,20v105H131c-11,0-20,9-20,20s9,20,20,20h105v105c0,11,9,20,20,20  s20-9,20-20V276h105c11,0,20-9,20-20S392,236,381,236z"/>
    </symbol>

    <symbol id="google_plus" viewBox="0 0 112.196 112.196" xml:space="preserve" xmlns="http://www.w3.org/2000/svg">
        <circle cx="56.098" cy="56.097" id="XMLID_30_" r="56.098" style="fill:#DC4E41;"/>
        <path d="M19.531,58.608c-0.199,9.652,6.449,18.863,15.594,21.867c8.614,2.894,19.205,0.729,24.937-6.648    c4.185-5.169,5.136-12.06,4.683-18.498c-7.377-0.066-14.754-0.044-22.12-0.033c-0.012,2.628,0,5.246,0.011,7.874    c4.417,0.122,8.835,0.066,13.252,0.155c-1.115,3.821-3.655,7.377-7.51,8.757c-7.443,3.28-16.94-1.005-19.282-8.813    c-2.827-7.477,1.801-16.5,9.442-18.675c4.738-1.667,9.619,0.21,13.673,2.673c2.054-1.922,3.976-3.976,5.864-6.052    c-4.606-3.854-10.525-6.217-16.61-5.698C29.526,35.659,19.078,46.681,19.531,58.608z"
              style="fill:#DC4E41;"/>
        <path d="M79.102,48.668c-0.022,2.198-0.045,4.407-0.056,6.604c-2.209,0.022-4.406,0.033-6.604,0.044    c0,2.198,0,4.384,0,6.582c2.198,0.011,4.407,0.022,6.604,0.045c0.022,2.198,0.022,4.395,0.044,6.604c2.187,0,4.385-0.011,6.582,0    c0.012-2.209,0.022-4.406,0.045-6.615c2.197-0.011,4.406-0.022,6.604-0.033c0-2.198,0-4.384,0-6.582    c-2.197-0.011-4.406-0.022-6.604-0.044c-0.012-2.198-0.033-4.407-0.045-6.604C83.475,48.668,81.288,48.668,79.102,48.668z"
              style="fill:#DC4E41;"/>
        <path d="M19.531,58.608c-0.453-11.927,9.994-22.949,21.933-23.092c6.085-0.519,12.005,1.844,16.61,5.698     c-1.889,2.077-3.811,4.13-5.864,6.052c-4.054-2.463-8.935-4.34-13.673-2.673c-7.642,2.176-12.27,11.199-9.442,18.675     c2.342,7.808,11.839,12.093,19.282,8.813c3.854-1.38,6.395-4.936,7.51-8.757c-4.417-0.088-8.835-0.033-13.252-0.155     c-0.011-2.628-0.022-5.246-0.011-7.874c7.366-0.011,14.743-0.033,22.12,0.033c0.453,6.439-0.497,13.33-4.683,18.498     c-5.732,7.377-16.322,9.542-24.937,6.648C25.981,77.471,19.332,68.26,19.531,58.608z"
              style="fill:#FFFFFF;"/>
        <path d="M79.102,48.668c2.187,0,4.373,0,6.57,0c0.012,2.198,0.033,4.407,0.045,6.604     c2.197,0.022,4.406,0.033,6.604,0.044c0,2.198,0,4.384,0,6.582c-2.197,0.011-4.406,0.022-6.604,0.033     c-0.022,2.209-0.033,4.406-0.045,6.615c-2.197-0.011-4.396,0-6.582,0c-0.021-2.209-0.021-4.406-0.044-6.604     c-2.197-0.023-4.406-0.033-6.604-0.045c0-2.198,0-4.384,0-6.582c2.198-0.011,4.396-0.022,6.604-0.044     C79.057,53.075,79.079,50.866,79.102,48.668z"
              style="fill:#FFFFFF;"/>
    </symbol>

    <symbol  id="facebook_circle" viewBox="0 0 112.196 112.196" xml:space="preserve" xmlns="http://www.w3.org/2000/svg">
    <circle cx="56.098" cy="56.098" r="56.098" style="fill:#3B5998;"/>
    <path d="M70.201,58.294h-10.01v36.672H45.025V58.294h-7.213V45.406h7.213v-8.34   c0-5.964,2.833-15.303,15.301-15.303L71.56,21.81v12.51h-8.151c-1.337,0-3.217,0.668-3.217,3.513v7.585h11.334L70.201,58.294z"
          style="fill:#FFFFFF;"/>
    </symbol>

</svg>
