<svg xmlns="http://www.w3.org/2000/svg" xmlns:xlink="http://www.w3.org/1999/xlink" viewBox="0 0 399.01 575.08"><defs><style>.cls-1{fill:#ebebfc;}.cls-2{fill:#d89bff;}.cls-3{fill:#a10aff;}.cls-4{fill:#f1f1f1;}.cls-5{fill:url(#linear-gradient);}.cls-6{fill:#e4a7ff;}.cls-7{fill:#ca78ff;}.cls-8{fill:#9647ff;}.cls-9{fill:url(#linear-gradient-2);}.cls-10{fill:url(#linear-gradient-3);}.cls-11{fill:url(#linear-gradient-4);}.cls-12{fill:#9d9be0;}.cls-13{fill:#8e8cdb;}.cls-14{fill:#e5e5fb;}.cls-15{fill:#ffc000;}.cls-16{fill:#f74169;}.cls-17{fill:#48b8f9;}.cls-18{fill:#1b194f;}.cls-19{fill:#8098d4;}.cls-20{fill:#f0b184;}.cls-21{fill:#182647;}.cls-22{fill:#5172c4;}.cls-23{fill:#282828;}.cls-24{fill:#1c2c53;}.cls-25{fill:#3a5bac;}.cls-26{fill:#2c4583;}.cls-27{fill:#e7a477;}.cls-28{fill:#3c3936;}</style><linearGradient id="linear-gradient" x1="-1131.42" y1="624.28" x2="-1131.42" y2="624.28" gradientTransform="matrix(2.32, -123.67, -105.79, -1.98, 68669.55, -138254.56)" gradientUnits="userSpaceOnUse"><stop offset="0" stop-color="#845aff"/><stop offset="0.57" stop-color="#c077ff"/><stop offset="1" stop-color="#da84ff"/></linearGradient><linearGradient id="linear-gradient-2" x1="-1131.6" y1="623.9" x2="-1131.6" y2="623.9" gradientTransform="matrix(2.32, -123.67, -105.79, -1.98, 68689.55, -138243.06)" xlink:href="#linear-gradient"/><linearGradient id="linear-gradient-3" x1="-1131.78" y1="623.51" x2="-1131.78" y2="623.51" gradientTransform="matrix(2.32, -123.67, -105.79, -1.98, 68709.67, -138231.42)" xlink:href="#linear-gradient"/><linearGradient id="linear-gradient-4" x1="-1132.08" y1="623.13" x2="-1130.53" y2="623.13" gradientTransform="matrix(2.32, -123.67, -105.79, -1.98, 68729.8, -138219.74)" xlink:href="#linear-gradient"/></defs><title>Asset 3</title><g id="Layer_2" data-name="Layer 2"><g id="Layer_1-2" data-name="Layer 1"><path class="cls-1" d="M162.81,538.25c5.2,3,13.08,3.33,17.59.73l146.39-84.53c4.51-2.6,3.94-7.15-1.26-10.15L285.4,421.13c-5.2-3-13.09-3.34-17.59-.73l-146.4,84.52c-4.51,2.6-3.94,7.15,1.26,10.16Z"/><path class="cls-1" d="M222.29,572.59c5.2,3,13.08,3.33,17.58.73l146.4-84.52c4.51-2.6,3.94-7.16-1.26-10.16l-40.13-23.17c-5.2-3-13.09-3.33-17.59-.73l-146.4,84.52c-4.51,2.6-3.94,7.16,1.27,10.16Z"/><path class="cls-1" d="M103.92,504.25c5.2,3,13.08,3.33,17.59.73L267.9,420.46c4.51-2.61,4-7.16-1.26-10.16l-40.13-23.17c-5.2-3-13.09-3.33-17.59-.73L62.52,470.92c-4.51,2.61-3.94,7.15,1.27,10.16Z"/><path class="cls-1" d="M44.44,469.9c5.2,3,13.08,3.34,17.59.74l146.39-84.53c4.51-2.6,4-7.15-1.26-10.15L167,352.79c-5.2-3-13.08-3.33-17.59-.73L3,436.58c-4.51,2.6-3.94,7.15,1.27,10.15Z"/><path class="cls-2" d="M166.22,88.27V328.6L5.8,421.13l0-250L159.93,82.26a4.2,4.2,0,0,1,4.2,0h.07l6.17,3.63Z"/><path class="cls-2" d="M210.6,115.52V354.23L50.19,446.76l0-250,154.1-88.9a4.2,4.2,0,0,1,4.2,0h.17l7.34,4.38Z"/><path class="cls-3" d="M166.88,86.22a4.2,4.2,0,0,1,6.31,3.64c0,41.13,0,242.71,0,242.71L12.77,425.18l0-250Z"/><path class="cls-2" d="M159.65,82.39S35.15,154,6.51,170.54a3.92,3.92,0,0,0,0,6.76c11.09,6.25,34.87,19.75,43.74,24.88a7,7,0,0,0,6.81-.13C80,188.8,211.56,112.4,211.56,112.4L204,108s-126.4,73-147.3,85a6,6,0,0,1-5.81,0c-6.66-3.88-23-13.38-30.53-17.63A2.72,2.72,0,0,1,19,173.17a2.55,2.55,0,0,1,1.29-2.25C43.8,157.29,166.59,86.39,166.59,86.39Z"/><path class="cls-2" d="M6.09,426.15h0Z"/><path class="cls-2" d="M51.82,394.38v8l114.77-66.28-6.94-4Z"/><path class="cls-4" d="M56.68,193.05l134.94-77.79L163.47,98.83,25.53,178.49l25.3,14.56A5.64,5.64,0,0,0,56.68,193.05Z"/><path class="cls-5" d="M6,426l.13.1L6,426.06Z"/><path class="cls-6" d="M65.1,197.42l-8,4.63a7,7,0,0,1-6.81.13l-6.79-3.88V447.51l8.09,4.63a4.22,4.22,0,0,0,4.21,0l9.32-5.38Z"/><path class="cls-7" d="M51.83,202.7l-.22,249.46-45.47-26a3.13,3.13,0,0,1-1.52-2.25l0-.37V173.94h0l0,.13a3.89,3.89,0,0,0,1.93,3.25c11.09,6.25,34.87,19.76,43.74,24.89Z"/><path class="cls-8" d="M210.69,113l1.15-.66a4.25,4.25,0,0,1,6.37,3.68c0,36,0,193.14,0,233.15a16.06,16.06,0,0,1-8,13.94L56.35,451.88l0-249.47.75-.32Z"/><path class="cls-2" d="M226.16,122.89V363.22L65.74,455.75l0-250,154.09-88.9a4.2,4.2,0,0,1,4.2,0h.08l6.16,3.62Z"/><path class="cls-2" d="M270.55,150.15v238.7L110.13,481.38l0-250,154.09-88.9a4.2,4.2,0,0,1,4.2,0h.17L276,146.9Z"/><path class="cls-3" d="M226.82,120.84a4.2,4.2,0,0,1,6.31,3.64c0,41.14,0,242.71,0,242.71L72.71,459.8l0-250Z"/><path class="cls-2" d="M219.59,117S95.09,188.66,66.46,205.17a3.91,3.91,0,0,0,0,6.75c11.09,6.25,34.87,19.76,43.74,24.88a6.94,6.94,0,0,0,6.81-.12C140,223.42,271.5,147,271.5,147l-7.6-4.37s-126.41,73-147.31,85a6,6,0,0,1-5.81,0c-6.66-3.87-23-13.37-30.53-17.63A2.7,2.7,0,0,1,79,207.79a2.55,2.55,0,0,1,1.29-2.25C103.74,191.91,226.53,121,226.53,121Z"/><path class="cls-2" d="M66,460.77h0Z"/><path class="cls-2" d="M111.76,429v8l114.77-66.27-6.94-4Z"/><path class="cls-4" d="M116.62,227.67l134.94-77.79-28.15-16.43L85.48,213.12l25.29,14.55A5.6,5.6,0,0,0,116.62,227.67Z"/><path class="cls-9" d="M66,460.65l.13.1-.12-.07Z"/><path class="cls-6" d="M125,232.05l-8,4.63a6.94,6.94,0,0,1-6.81.12l-6.79-3.88V482.13l8.09,4.63a4.22,4.22,0,0,0,4.21,0l9.32-5.38Z"/><path class="cls-7" d="M111.77,237.33l-.22,249.45-45.47-26a3.17,3.17,0,0,1-1.52-2.25l0-.38V208.57h0l0,.12A3.9,3.9,0,0,0,66.51,212c11.09,6.24,34.87,19.75,43.74,24.88Z"/><path class="cls-8" d="M270.63,147.59l1.16-.65a4.24,4.24,0,0,1,6.37,3.67c0,36,0,193.14,0,233.15a16.06,16.06,0,0,1-8,13.94c-33,19.05-153.81,88.8-153.81,88.8l0-249.47.75-.32Z"/><path class="cls-2" d="M286.53,157.74V398.07L126.11,490.6l0-249.95,154.09-88.91a4.2,4.2,0,0,1,4.2,0h.08l6.16,3.63Z"/><path class="cls-2" d="M330.92,185V423.71l-160.4,92.52,0-250,154.09-88.9a4.2,4.2,0,0,1,4.2,0H329l7.34,4.37Z"/><path class="cls-3" d="M287.2,155.7a4.18,4.18,0,0,1,4.19,0,4.23,4.23,0,0,1,2.11,3.65c0,41.13,0,242.71,0,242.71L133.08,494.66l0-250S257.5,172.84,287.2,155.7Z"/><path class="cls-2" d="M280,151.86S155.46,223.52,126.83,240a3.91,3.91,0,0,0,0,6.75c11.09,6.25,34.88,19.76,43.74,24.89a7,7,0,0,0,6.81-.13c23-13.25,154.48-89.65,154.48-89.65l-7.6-4.38s-126.4,73-147.3,85a6,6,0,0,1-5.81,0c-6.67-3.88-23-13.38-30.54-17.63a2.72,2.72,0,0,1-1.29-2.25,2.55,2.55,0,0,1,1.29-2.25c23.5-13.63,146.29-84.53,146.29-84.53Z"/><path class="cls-2" d="M126.4,495.63h0Z"/><path class="cls-2" d="M172.13,463.86v8L286.91,405.6l-6.94-4Z"/><path class="cls-4" d="M177,262.53l134.93-77.79L283.79,168.3,145.85,248l25.29,14.56A5.66,5.66,0,0,0,177,262.53Z"/><path class="cls-10" d="M126.33,495.51l.13.1-.12-.08Z"/><path class="cls-6" d="M185.41,266.9l-8,4.63a7,7,0,0,1-6.81.13l-6.79-3.88V517l8.09,4.63a4.24,4.24,0,0,0,4.22,0l9.31-5.38Z"/><path class="cls-7" d="M172.15,272.18l-.23,249.46-45.47-26a3.15,3.15,0,0,1-1.52-2.25l0-.37V243.42h0l0,.13a3.89,3.89,0,0,0,1.93,3.25c11.09,6.25,34.87,19.75,43.74,24.88Z"/><path class="cls-8" d="M331,182.45l1.15-.66a4.23,4.23,0,0,1,4.24,0,4.28,4.28,0,0,1,2.13,3.68c0,36,0,193.14,0,233.15a16.06,16.06,0,0,1-8,13.93L176.66,521.36l0-249.47.75-.32Z"/><path class="cls-2" d="M347,192.65V433L186.59,525.52l0-250,154.09-88.91a4.2,4.2,0,0,1,4.2,0H345l6.17,3.63Z"/><path class="cls-2" d="M391.4,219.91V458.62L231,551.15l0-250,154.09-88.9a4.2,4.2,0,0,1,4.2,0h.17l7.34,4.37Z"/><path class="cls-3" d="M347.67,190.61a4.2,4.2,0,0,1,6.31,3.64c0,41.13,0,242.71,0,242.71L193.56,529.57l0-250Z"/><path class="cls-2" d="M340.44,186.78s-124.5,71.65-153.13,88.15a3.94,3.94,0,0,0-1.93,3.38,4,4,0,0,0,1.94,3.37c11.09,6.26,34.87,19.76,43.74,24.89a7,7,0,0,0,6.81-.13c23-13.25,154.48-89.65,154.48-89.65l-7.6-4.38s-126.41,73-147.3,85a6,6,0,0,1-5.82,0c-6.66-3.88-23-13.38-30.53-17.63a2.72,2.72,0,0,1-1.29-2.25,2.55,2.55,0,0,1,1.29-2.25c23.49-13.63,146.28-84.53,146.28-84.53Z"/><path class="cls-2" d="M186.88,530.54h0Z"/><path class="cls-2" d="M232.61,498.78v8l114.77-66.27-6.94-4Z"/><path class="cls-4" d="M237.47,297.44l134.94-77.79-28.14-16.44L206.33,282.88l25.29,14.56A5.64,5.64,0,0,0,237.47,297.44Z"/><path class="cls-11" d="M186.81,530.42l.13.1-.12-.08Z"/><path class="cls-6" d="M245.89,301.81l-8,4.63a7,7,0,0,1-6.81.13l-6.79-3.88V551.9l8.09,4.63a4.22,4.22,0,0,0,4.21,0l9.32-5.38Z"/><path class="cls-7" d="M232.62,307.09l-.22,249.46-45.47-26a3.13,3.13,0,0,1-1.52-2.25l0-.37V278.33h0l0,.13a3.89,3.89,0,0,0,1.93,3.25c11.09,6.25,34.87,19.76,43.74,24.88Z"/><path class="cls-8" d="M391.48,217.36l1.16-.66a4.23,4.23,0,0,1,4.24,0,4.28,4.28,0,0,1,2.13,3.68c0,36,0,193.14,0,233.15A16.11,16.11,0,0,1,391,467.47c-33,19-153.81,88.8-153.81,88.8l0-249.47.75-.32Z"/><path class="cls-12" d="M95.45.67a5.81,5.81,0,0,1,6,.34L349.83,144.47c4.33,2.51,7.28,8.92,6.58,14.31L343.07,260.6c-.35,2.68-1.54,4.61-3.19,5.55h0a3,3,0,0,1-.44.23l-7.58,3.27.24-7L86.88,121c-4.34-2.51-7.3-8.92-6.59-14.3L93.14,8.6,87.84,4,95.45.67Z"/><path class="cls-13" d="M356.21,160.29l-13.14,100.3a7.3,7.3,0,0,1-3.19,5.58l-.44.17-7.21,3.18,13.53-105.17Z"/><path class="cls-14" d="M348.36,162.28c.7-5.39-2.25-11.8-6.59-14.31L93.38,4.5C89,2,84.93,4.32,84.23,9.71L70.89,111.53c-.71,5.39,2.25,11.8,6.59,14.31L325.87,269.32c4.34,2.51,8.44.17,9.15-5.21Z"/><path class="cls-15" d="M139.28,48.08c20.65,12.42,35,40.43,32.11,62.86a35,35,0,0,1-3.17,11L151.66,103.7a18.43,18.43,0,0,0,.87-3.77c1.45-11.2-5.63-25.15-15.88-31.49Z"/><path class="cls-16" d="M139.28,48.08l-2.63,20.36-.59-.36c-10.57-6.17-20.34-1.92-21.81,9.49a24.26,24.26,0,0,0-.15,4.19L95.49,79.41a49.86,49.86,0,0,1-.09-12.85c2.92-22.65,22.31-31.09,43.29-18.84Z"/><path class="cls-17" d="M151.66,103.71l16.57,18.18c-6.9,14.1-23,17.91-40.13,7.9S98,99,95.49,79.41l18.61,2.35c.49,10.52,7.32,22.23,16.62,27.66S148.71,112.21,151.66,103.71Z"/><path class="cls-12" d="M301.05,163.69a5.29,5.29,0,0,0-2.27-4.94L188.55,95.05c-1.5-.87-2.91-.06-3.15,1.8l-.48,3.63a5.29,5.29,0,0,0,2.27,4.94l110.23,63.7c1.5.87,2.91.06,3.16-1.79Z"/><path class="cls-12" d="M220,140.49a5.26,5.26,0,0,0-2.27-4.93l-31.85-18.39c-1.5-.87-2.92-.06-3.16,1.8l-.47,3.63a5.29,5.29,0,0,0,2.27,4.94l31.85,18.39c1.5.86,2.91.06,3.16-1.8Z"/><path class="cls-12" d="M311.68,193.54a5.32,5.32,0,0,0-2.28-4.94l-78.61-45.43c-1.5-.86-2.91,0-3.15,1.8l-.48,3.64a5.26,5.26,0,0,0,2.27,4.93L308.05,199c1.49.87,2.91.06,3.15-1.8Z"/><path class="cls-12" d="M251.23,183.11a5.29,5.29,0,0,0-2.27-4.94l-66.8-38.59c-1.5-.87-2.91-.06-3.16,1.8l-.47,3.63A5.29,5.29,0,0,0,180.8,150l66.8,38.59c1.5.87,2.91.06,3.16-1.79Z"/><path class="cls-12" d="M304.69,214a5.32,5.32,0,0,0-2.28-4.94l-39-22.54c-1.5-.86-2.92-.06-3.16,1.8l-.47,3.64a5.26,5.26,0,0,0,2.27,4.93l39,22.54c1.49.87,2.91.06,3.15-1.8Z"/><path class="cls-18" d="M86.5,210.47,12.07,476.32c-2,7.15,9.05,10.17,11.05,3q37.2-132.92,74.43-265.85C99.55,206.37,88.5,203.34,86.5,210.47Z"/><path class="cls-18" d="M144.32,240.05Q107.12,373,69.9,505.91c-2,7.15,9,10.17,11,3Q118.16,376,155.38,243.11C157.37,236,146.32,232.92,144.32,240.05Z"/><path class="cls-18" d="M78.69,254.24l56.43,34.55c6.23,3.82,11.95-6,5.75-9.76L84.44,244.47C78.22,240.66,72.5,250.44,78.69,254.24Z"/><path class="cls-18" d="M67.82,299q26.42,17,52.84,34c6.14,3.95,11.84-5.83,5.74-9.76q-26.41-17-52.83-34C67.42,285.27,61.72,295.06,67.82,299Z"/><path class="cls-18" d="M56.41,349l52.41,31c6.27,3.73,12-6.06,5.74-9.76l-52.41-31C55.87,335.53,50.15,345.31,56.41,349Z"/><path class="cls-18" d="M43.31,386.8,96,420c6.17,3.9,11.88-5.9,5.74-9.77L49.05,377C42.88,373.15,37.16,382.94,43.31,386.8Z"/><path class="cls-18" d="M31.64,433l52,31.33c6.26,3.76,12-6,5.75-9.76l-52-31.33C31.13,419.51,25.41,429.29,31.64,433Z"/><g id="People"><path class="cls-19" d="M66.08,236.37s-3.3-17.19,5.9-23.47c3.24-2.21,9.81-1.5,14.39,5.15,11.49,16.67,13.94,21.79,13.94,21.79l23.47-22.37s6,1.34,7.06,5.44c0,0-20.84,28.21-32.39,32.48C98.45,255.39,76,255.58,66.08,236.37Z"/><path class="cls-20" d="M98.45,255.39l1.86-15.55,23.47-22.37s6,1.34,7.06,5.44C130.84,222.91,110,251.12,98.45,255.39Z"/><path class="cls-20" d="M130.87,222.92s5.94-4,7.89-6.55a12.74,12.74,0,0,0,2.67-5.66c.08-.87-2.68,1.68-3.54,2.53s-3.81,1.31-.54-5.46-5.26-2.58-5.88-2.47-5.22,4-7.69,12.16A11.73,11.73,0,0,1,130.87,222.92Z"/><path class="cls-20" d="M86.9,240s-2.92-10.58-5-18.63c-1.54-6,5.35-1.06,11,1.4,5.44,2.39,6.73-1.14,9.23-.2a100.28,100.28,0,0,0,28.16,6.18c4.37.28,7.06.08,7.31-.07a201.55,201.55,0,0,0,29.58-21.76s7,4,5.25,6.07c-11.77,14.12-17.35,25.22-31.11,32.88,0,0-21.11,3.25-28.71,4-2.93.29-13.78,2.55-15.22,18.67C100.31,239.83,88.39,247.25,86.9,240Z"/><path class="cls-21" d="M27.47,429.09c2.25-9.47,18.09,5.42,20.52,8.86,1.1,1.56-7.25,6.64-12.77,8.09-2.51.66-9.73-2.66-10.35-3.21C23.27,441.4,25.48,437.51,27.47,429.09Z"/><path class="cls-22" d="M34.36,441.25c1,2.24,5.74.85,9.15-1.4,2.77-1.82,2.7-2.4,1.88-4.81.81,0,2.14,2.27,2.6,2.91,1.1,1.56-7.25,6.64-12.77,8.09-2.51.66-9.73-2.66-10.35-3.21-.8-.72-.65-2.05-.05-4.25S33.69,439.83,34.36,441.25Z"/><path class="cls-23" d="M60.14,456s-1.12,3.68-2.71,10.3c-.8,3.31,10,5.33,13.56,5.07,22.86-1.64,23.11-4.87,21.87-6.47-3.6-4.69-12.68-11.52-12.68-11.52Z"/><path class="cls-21" d="M60.14,456s-1.12,3.68-2.71,10.3c-.8,3.31,10,5.33,13.56,5.07,22.86-1.64,23.11-4.87,21.87-6.47-3.6-4.69-12.68-11.52-12.68-11.52Z"/><path class="cls-22" d="M70.61,468.16S59.51,458,58.52,461.85c-.32,1.27-.69,2.74-1.09,4.4-.8,3.31,10,5.33,13.56,5.07,22.86-1.64,23.11-4.87,21.87-6.47-.94-1.23-1.84-3.27-3.7-4,2,3.26-1.1,4.75-1.1,4.75Z"/><path class="cls-24" d="M54.44,297.58s-4.84,46.94-6,53.16-11,46.14-21.33,79.84c0,0,14.62,8.71,16.21,0,.95-5.23,21.65-65.18,25.41-73.93,5.68-13.3,12.67-55.88,12.67-55.88Z"/><path class="cls-25" d="M74,300.58S72.35,396,60.14,456c0,0,15.76,7.64,20-2.62,0,0,11.14-61.95,14.14-74.76s13.76-52.77,12.6-74.52S74,300.58,74,300.58Z"/><path class="cls-26" d="M61,328.56c-1.9,11.69-4.59,24.77-8.14,34.33C45.46,382.73,40.19,423,36.32,434.15a30.79,30.79,0,0,1-12-5.36c5.74-13.92,9.18-34,16-62.72,6.13-25.65-.08-43.23,17.67-75.58l6.54,10.35s-.08.83-.23,2.31l27.39,10.94s-.56,31.25-9.59,70.69c-7,30.52-13.31,61.24-15.76,73.33a26.15,26.15,0,0,1-10.82-4.77c5.25-23.25,10.11-43.66,11.29-65.67C68,366.26,70.33,347.61,69,345.31,65,338.13,62.48,332.84,61,328.56Z"/><path class="cls-19" d="M78.4,212.08s-10.59,5.29-12.33,25.84c-1.54,18.25-16.39,57.2-18,71.78,0,0,2.07,7.72,6.25,9.87,1.91,1,11.3,8.88,29.64,14.9,0,0,24.08,7.44,23-10.79s3.73-57.8,5.66-64.38,11.36-12.11-1.89-27.73C98.05,216.55,89.24,213.39,78.4,212.08Z"/><path class="cls-27" d="M86.3,199.88s-.49,6.82-3.27,11.93c-.43.79-3.6,3.3,1,6.18,2.76,1.73,14.07,2.59,19,5.34.44.25-6.62-3.21.78-17.94C106.22,200.42,86.3,199.88,86.3,199.88Z"/><path class="cls-20" d="M112.93,180.26s.23,27.65-1.42,28.73c-2.74,1.81-11.51,5.57-17.55,2-7.29-4.33-13.5-16.63-8.32-25.69S102.64,170.18,112.93,180.26Z"/><path class="cls-27" d="M96.37,207.36c1.86,1.46,2.65.18,2.93.9,2.39,6,13.67-.23,12.21.73-2.74,1.81-11.51,5.57-17.55,2C86.67,206.67,91.77,203.75,96.37,207.36Z"/><path class="cls-27" d="M112.87,191.32c0-.84,2.09,4.53,2,6.12-.06,1.29-.88,1.33-2.25,2.24C112.76,197,112.83,194.08,112.87,191.32Z"/><path class="cls-28" d="M112.83,177.32s2.87,7.2-4.61,9.29c-4.41,1.23-5.75,7.42-5.35,11.35.1,1,1.09,3.82.83,4.29a5.54,5.54,0,0,1-2.67,1.33c-1.27-1.38-1.72-4.85-4.37-4.06a3.29,3.29,0,0,0-1,.44c-2.61,1.7-.73,5.73.77,7.54.39.46,1.94-.3,1.8.66A4.32,4.32,0,0,1,97.21,210c-2.79,3.52-9,1.41-11.69-1.35-2.13-2.21-2.79-3.46-4.78-10.41-2.9-10.13-1-21.31,11.05-25.22S113.05,174.24,112.83,177.32Z"/><path class="cls-22" d="M108.76,326.64c-1.06-18.24,2-60.76,3.91-67.34s15.15-18-6.13-31c-6.27,2.39-9.85,7-7.59,20.33,2.14,12.57-7,72.06-8.69,87.14,4.28.51,7.37,1.13,8.08.73C101.33,334.74,109.09,332.24,108.76,326.64Z"/><path class="cls-19" d="M86.9,240s-2.92-10.58-5-18.63c-1.54-6,5.35-1.06,11,1.4,5.44,2.39,6.73-1.14,9.23-.2,6.66,2.48,22.72,6,35.76,3.3,5.52-1.17,9.52-6.47,14.1-7.82,4.21-1.24,8.55,13,7,15.41-1.79,2.87-9.95,12.06-17.58,14.93-10.73,4-24.41,1-28.85,1.46-2.93.29-13.78,2.55-15.22,18.67C100.31,239.83,88.39,247.25,86.9,240Z"/><path class="cls-20" d="M166.06,208s2.4-6,4.12-8.31c4.14-5.59,6.7-6.57,7.18-5.93s-1.6,3.44-2.15,4.38,3.73-3.5,4.66-2.94c1.15.7,3.24,1.64,3.65,3.06,1.39,4.78-5.79,11.84-11.12,14.71A10.41,10.41,0,0,0,166.06,208Z"/></g></g></g></svg>